<svg width="27" height="18" viewBox="0 0 27 18" fill="none" xmlns="http://www.w3.org/2000/svg">
<path d="M20.8189 1.38151L25.4993 15.7748C25.8355 16.8086 25.0649 17.8696 23.9778 17.8696H20.6721C19.8007 17.8696 19.0296 17.3054 18.7658 16.4748L14.3206 2.475C13.9316 1.24982 14.8461 0 16.1316 0H18.9169C19.7832 0 20.551 0.557696 20.8189 1.38151Z" fill="#F1416C"/>
<path d="M15.2756 11.8637L11.9636 1.25499C11.7305 0.508404 11.0392 0 10.2571 0C9.49549 0 8.86749 0.596819 8.82873 1.35743L8.44638 8.86114C8.39991 9.77307 8.5099 10.6862 8.7716 11.561L10.3173 16.7281C10.5199 17.4055 11.1432 17.8696 11.8502 17.8696H13.1417C13.8381 17.8696 14.4546 17.4191 14.6661 16.7556L15.2665 14.8726C15.5784 13.8943 15.5816 12.8438 15.2756 11.8637Z" fill="white"/>
<path d="M7.3235 0H10.2874C11.5686 0 12.4825 1.24207 12.1014 2.46522L7.69866 16.595C7.43825 17.4307 6.66459 18 5.78921 18H2.51488C1.44011 18 0.67099 16.9614 0.984435 15.9334L5.41045 1.41672C5.66706 0.575073 6.4436 0 7.3235 0Z" fill="#F1416C"/>
</svg>
