<svg width="111" height="110" viewBox="0 0 111 110" fill="none" xmlns="http://www.w3.org/2000/svg">
<g clip-path="url(#clip0_3090_15885)">
<path d="M59.0728 7.00562C57.8839 6.91864 56.6922 6.87507 55.5 6.875V0C56.8635 0.000658815 58.2265 0.0511097 59.5862 0.15125L59.0728 7.00562ZM72.9756 10.0994C70.7517 9.24897 68.4677 8.5619 66.1421 8.04375L67.6614 1.33375C70.3185 1.925 72.9339 2.70875 75.4731 3.685L72.9756 10.0994ZM82.4799 14.9806C81.4881 14.3251 80.4722 13.7059 79.4344 13.1244L82.8546 7.14312C85.2265 8.47506 87.4966 9.97785 89.6464 11.6394L85.3798 17.0637C84.4393 16.3366 83.472 15.644 82.4799 14.9875V14.9806ZM95.2033 27.2869C93.831 25.3548 92.3169 23.5257 90.6731 21.8144L95.6959 17.0706C97.569 19.03 99.3034 21.1269 100.878 23.3269L95.2033 27.2869ZM100.365 36.5819C99.9094 35.4919 99.4142 34.4187 98.8802 33.3644L105.075 30.2706C106.301 32.6843 107.344 35.1845 108.197 37.7506L101.607 39.9025C101.234 38.7809 100.82 37.6733 100.365 36.5819ZM104.042 53.8175C103.986 51.4548 103.754 49.0995 103.348 46.7706L110.181 45.6019C110.646 48.2556 110.917 50.9506 110.986 53.6456L104.049 53.8175H104.042ZM103.133 64.3912C103.362 63.2225 103.549 62.0606 103.695 60.885L110.584 61.7306C110.251 64.4129 109.717 67.0671 108.988 69.6712L102.3 67.8356C102.62 66.7012 102.897 65.5531 103.133 64.3912ZM96.5284 80.7469C97.8049 78.7531 98.9287 76.6631 99.9 74.5044L106.241 77.2887C105.131 79.7637 103.847 82.1425 102.391 84.425L96.5284 80.7469ZM89.8406 89.0312C90.687 88.1925 91.4987 87.3262 92.2688 86.4325L97.5274 90.9219C96.6369 91.9451 95.7089 92.9358 94.7454 93.8919L89.8406 89.0312Z" fill="#16B1FF"/>
<path d="M55.4992 6.875C47.5133 6.87557 39.6508 8.82782 32.6081 12.5588C25.5654 16.2898 19.5598 21.6844 15.1234 28.2648C10.6869 34.8452 7.95648 42.4083 7.17393 50.2842C6.39139 58.16 7.58086 66.1056 10.637 73.4171C13.6932 80.7286 18.5217 87.1804 24.6948 92.201C30.868 97.2216 38.1953 100.656 46.0277 102.2C53.8601 103.744 61.9559 103.35 69.598 101.053C77.2401 98.7562 84.1927 94.627 89.8398 89.0313L94.7447 93.8919C88.2909 100.291 80.3442 105.014 71.6084 107.642C62.8726 110.27 53.6176 110.722 44.6633 108.958C35.709 107.195 27.332 103.269 20.2744 97.5303C13.2168 91.7913 7.69661 84.4159 4.20288 76.0574C0.70915 67.6989 -0.650235 58.6154 0.245173 49.6119C1.14058 40.6083 4.26313 31.9626 9.33617 24.4408C14.4092 16.9189 21.2761 10.7533 29.3284 6.49002C37.3807 2.22678 46.3698 -0.00239753 55.4992 1.93503e-06V6.875Z" fill="#16B1FF"/>
<path d="M52.0312 20.625C52.9512 20.625 53.8335 20.9872 54.484 21.6318C55.1345 22.2765 55.5 23.1508 55.5 24.0625V59.8812L78.033 72.6412C78.8086 73.1049 79.3704 73.8508 79.5983 74.7195C79.8263 75.5882 79.7023 76.5108 79.2529 77.2901C78.8036 78.0694 78.0644 78.6437 77.1935 78.8901C76.3225 79.1365 75.3888 79.0355 74.592 78.6087L50.3107 64.8587C49.7798 64.5582 49.3385 64.124 49.0315 63.6C48.7245 63.076 48.5627 62.4809 48.5625 61.875V24.0625C48.5625 23.1508 48.928 22.2765 49.5785 21.6318C50.229 20.9872 51.1113 20.625 52.0312 20.625Z" fill="#16B1FF"/>
</g>
<defs>
<clipPath id="clip0_3090_15885">
<rect width="111" height="110" fill="white"/>
</clipPath>
</defs>
</svg>
