<svg width="111" height="111" viewBox="0 0 111 111" fill="none" xmlns="http://www.w3.org/2000/svg">
<g clip-path="url(#clip0_3090_15899)">
<path d="M38.1562 65.9826C38.6835 72.6009 43.9144 77.7555 53.2939 78.366V83.25H57.4564V78.3313C67.1689 77.6514 72.8438 72.4622 72.8438 64.9281C72.8438 58.0808 68.5009 54.5496 60.7378 52.7181L57.4564 51.9411V38.6419C61.6189 39.1136 64.269 41.3891 64.9072 44.5388H72.2055C71.6782 38.1632 66.2115 33.1751 57.4564 32.634V27.75H53.2939V32.7381C45.0036 33.5497 39.3495 38.5378 39.3495 45.5933C39.3495 51.837 43.5536 55.8053 50.5397 57.4356L53.2939 58.1154V72.2263C49.0273 71.5811 46.2037 69.2432 45.5655 65.9826H38.1562V65.9826ZM53.2592 50.9559C49.1661 50.0055 46.9461 48.0699 46.9461 45.1562C46.9461 41.8956 49.3395 39.4536 53.2939 38.739V50.949H53.2592V50.9559ZM58.0599 59.2324C63.0341 60.384 65.3304 62.2502 65.3304 65.5455C65.3304 69.3056 62.4722 71.8864 57.4564 72.3581V59.0936L58.0599 59.2324V59.2324Z" fill="#16B1FF"/>
<path d="M55.5 104.062C42.6204 104.062 30.2684 98.9461 21.1611 89.8389C12.0539 80.7316 6.9375 68.3796 6.9375 55.5C6.9375 42.6204 12.0539 30.2684 21.1611 21.1611C30.2684 12.0539 42.6204 6.9375 55.5 6.9375C68.3796 6.9375 80.7316 12.0539 89.8389 21.1611C98.9461 30.2684 104.062 42.6204 104.062 55.5C104.062 68.3796 98.9461 80.7316 89.8389 89.8389C80.7316 98.9461 68.3796 104.062 55.5 104.062ZM55.5 111C70.2195 111 84.3362 105.153 94.7444 94.7444C105.153 84.3362 111 70.2195 111 55.5C111 40.7805 105.153 26.6638 94.7444 16.2556C84.3362 5.84731 70.2195 0 55.5 0C40.7805 0 26.6638 5.84731 16.2556 16.2556C5.84731 26.6638 0 40.7805 0 55.5C0 70.2195 5.84731 84.3362 16.2556 94.7444C26.6638 105.153 40.7805 111 55.5 111V111Z" fill="#16B1FF"/>
<path d="M55.5 93.6562C45.3803 93.6562 35.6751 89.6362 28.5195 82.4805C21.3638 75.3249 17.3438 65.6197 17.3438 55.5C17.3438 45.3803 21.3638 35.6751 28.5195 28.5195C35.6751 21.3638 45.3803 17.3438 55.5 17.3438C65.6197 17.3438 75.3249 21.3638 82.4805 28.5195C89.6362 35.6751 93.6562 45.3803 93.6562 55.5C93.6562 65.6197 89.6362 75.3249 82.4805 82.4805C75.3249 89.6362 65.6197 93.6562 55.5 93.6562ZM55.5 97.125C60.9663 97.125 66.379 96.0483 71.4292 93.9565C76.4794 91.8646 81.0681 88.7986 84.9333 84.9333C88.7986 81.0681 91.8646 76.4794 93.9565 71.4292C96.0483 66.379 97.125 60.9663 97.125 55.5C97.125 50.0337 96.0483 44.621 93.9565 39.5708C91.8646 34.5206 88.7986 29.9319 84.9333 26.0667C81.0681 22.2014 76.4794 19.1354 71.4292 17.0435C66.379 14.9517 60.9663 13.875 55.5 13.875C44.4604 13.875 33.8729 18.2605 26.0667 26.0667C18.2605 33.8729 13.875 44.4604 13.875 55.5C13.875 66.5396 18.2605 77.1271 26.0667 84.9333C33.8729 92.7395 44.4604 97.125 55.5 97.125V97.125Z" fill="#16B1FF"/>
</g>
<defs>
<clipPath id="clip0_3090_15899">
<rect width="111" height="111" fill="white"/>
</clipPath>
</defs>
</svg>
