<svg width="111" height="111" viewBox="0 0 111 111" fill="none" xmlns="http://www.w3.org/2000/svg">
<g clip-path="url(#clip0_3090_15908)">
<path d="M13.875 13.875C10.1951 13.875 6.66596 15.3368 4.06389 17.9389C1.46183 20.541 0 24.0701 0 27.75L0 83.3194C0.0183395 86.9872 1.48826 90.4986 4.08834 93.0857C6.68842 95.6727 10.2071 97.125 13.875 97.125H52.0312C52.9512 97.125 53.8335 96.7595 54.484 96.109C55.1345 95.4585 55.5 94.5762 55.5 93.6562C55.5 92.7363 55.1345 91.854 54.484 91.2035C53.8335 90.553 52.9512 90.1875 52.0312 90.1875H13.875C12.3479 90.1877 10.8634 89.684 9.65172 88.7545C8.44004 87.8251 7.5689 86.5218 7.17338 85.0468L46.3009 60.9668L55.5 66.4821L104.062 37.3446V58.9688C104.062 59.8887 104.428 60.771 105.078 61.4215C105.729 62.072 106.611 62.4375 107.531 62.4375C108.451 62.4375 109.334 62.072 109.984 61.4215C110.635 60.771 111 59.8887 111 58.9688V27.75C111 24.0701 109.538 20.541 106.936 17.9389C104.334 15.3368 100.805 13.875 97.125 13.875H13.875ZM39.5993 56.943L6.9375 77.0409V37.3446L39.5993 56.943ZM6.9375 29.2554V27.75C6.9375 25.9101 7.66841 24.1455 8.96945 22.8444C10.2705 21.5434 12.0351 20.8125 13.875 20.8125H97.125C98.9649 20.8125 100.73 21.5434 102.031 22.8444C103.332 24.1455 104.062 25.9101 104.062 27.75V29.2554L55.5 58.3929L6.9375 29.2554Z" fill="#16B1FF"/>
<path d="M111 86.7188C111 93.1585 108.442 99.3346 103.888 103.888C99.3346 108.442 93.1585 111 86.7188 111C80.279 111 74.1029 108.442 69.5493 103.888C64.9957 99.3346 62.4375 93.1585 62.4375 86.7188C62.4375 80.279 64.9957 74.1029 69.5493 69.5493C74.1029 64.9957 80.279 62.4375 86.7188 62.4375C93.1585 62.4375 99.3346 64.9957 103.888 69.5493C108.442 74.1029 111 80.279 111 86.7188ZM97.1736 75.0707C96.7827 74.8365 96.3496 74.6815 95.8989 74.6147C95.4482 74.548 94.9888 74.5706 94.5468 74.6814C94.1049 74.7922 93.6891 74.989 93.3232 75.2606C92.9573 75.5321 92.6485 75.873 92.4144 76.2639L84.2976 89.7921L80.5028 85.9972C79.8514 85.3459 78.968 84.98 78.0469 84.98C77.1257 84.98 76.2423 85.3459 75.591 85.9972C74.9397 86.6486 74.5737 87.532 74.5737 88.4531C74.5737 89.3743 74.9397 90.2577 75.591 90.909L80.9606 96.2717C81.5195 96.8317 82.1988 97.2568 82.9467 97.5148C83.6946 97.7728 84.4915 97.8568 85.2768 97.7605C86.0621 97.6642 86.8151 97.3901 87.4785 96.959C88.1419 96.5279 88.6983 95.9511 89.1052 95.2727L98.3668 79.8298C98.601 79.439 98.756 79.0059 98.8228 78.5552C98.8895 78.1045 98.8669 77.645 98.7561 77.2031C98.6453 76.7611 98.4485 76.3453 98.1769 75.9794C97.9054 75.6136 97.5645 75.3048 97.1736 75.0707Z" fill="#16B1FF"/>
</g>
<defs>
<clipPath id="clip0_3090_15908">
<rect width="111" height="111" fill="white"/>
</clipPath>
</defs>
</svg>
