<svg width="110" height="100" viewBox="0 0 110 100" fill="none" xmlns="http://www.w3.org/2000/svg">
<path d="M34.375 25C33.4633 25 32.589 25.3292 31.9443 25.9153C31.2997 26.5013 30.9375 27.2962 30.9375 28.125C30.9375 28.9538 31.2997 29.7487 31.9443 30.3347C32.589 30.9208 33.4633 31.25 34.375 31.25H75.625C76.5367 31.25 77.411 30.9208 78.0557 30.3347C78.7003 29.7487 79.0625 28.9538 79.0625 28.125C79.0625 27.2962 78.7003 26.5013 78.0557 25.9153C77.411 25.3292 76.5367 25 75.625 25H34.375ZM30.9375 40.625C30.9375 39.7962 31.2997 39.0013 31.9443 38.4153C32.589 37.8292 33.4633 37.5 34.375 37.5H75.625C76.5367 37.5 77.411 37.8292 78.0557 38.4153C78.7003 39.0013 79.0625 39.7962 79.0625 40.625C79.0625 41.4538 78.7003 42.2487 78.0557 42.8347C77.411 43.4208 76.5367 43.75 75.625 43.75H34.375C33.4633 43.75 32.589 43.4208 31.9443 42.8347C31.2997 42.2487 30.9375 41.4538 30.9375 40.625ZM34.375 50C33.4633 50 32.589 50.3292 31.9443 50.9153C31.2997 51.5013 30.9375 52.2962 30.9375 53.125C30.9375 53.9538 31.2997 54.7487 31.9443 55.3347C32.589 55.9208 33.4633 56.25 34.375 56.25H75.625C76.5367 56.25 77.411 55.9208 78.0557 55.3347C78.7003 54.7487 79.0625 53.9538 79.0625 53.125C79.0625 52.2962 78.7003 51.5013 78.0557 50.9153C77.411 50.3292 76.5367 50 75.625 50H34.375ZM34.375 62.5C33.4633 62.5 32.589 62.8292 31.9443 63.4153C31.2997 64.0013 30.9375 64.7962 30.9375 65.625C30.9375 66.4538 31.2997 67.2487 31.9443 67.8347C32.589 68.4208 33.4633 68.75 34.375 68.75H55C55.9117 68.75 56.786 68.4208 57.4307 67.8347C58.0753 67.2487 58.4375 66.4538 58.4375 65.625C58.4375 64.7962 58.0753 64.0013 57.4307 63.4153C56.786 62.8292 55.9117 62.5 55 62.5H34.375Z" fill="#16B1FF"/>
<path d="M13.75 12.5C13.75 9.18479 15.1987 6.00537 17.7773 3.66117C20.3559 1.31696 23.8533 0 27.5 0L82.5 0C86.1467 0 89.6441 1.31696 92.2227 3.66117C94.8013 6.00537 96.25 9.18479 96.25 12.5V87.5C96.25 90.8152 94.8013 93.9946 92.2227 96.3388C89.6441 98.683 86.1467 100 82.5 100H27.5C23.8533 100 20.3559 98.683 17.7773 96.3388C15.1987 93.9946 13.75 90.8152 13.75 87.5V12.5ZM82.5 6.25H27.5C25.6766 6.25 23.928 6.90848 22.6386 8.08058C21.3493 9.25268 20.625 10.8424 20.625 12.5V87.5C20.625 89.1576 21.3493 90.7473 22.6386 91.9194C23.928 93.0915 25.6766 93.75 27.5 93.75H82.5C84.3234 93.75 86.072 93.0915 87.3614 91.9194C88.6507 90.7473 89.375 89.1576 89.375 87.5V12.5C89.375 10.8424 88.6507 9.25268 87.3614 8.08058C86.072 6.90848 84.3234 6.25 82.5 6.25Z" fill="#16B1FF"/>
</svg>
