<svg width="60" height="122" viewBox="0 0 60 122" fill="none" xmlns="http://www.w3.org/2000/svg">
<path d="M29.07 61.73H0.0300293V90.77H29.07V61.73Z" fill="#0468B1"/>
<path d="M7.40002 66.49V77.91C7.40002 83.91 10.4 86.2 14.4 86.2C18.6 86.2 21.73 83.78 21.73 77.82V66.49H19.16V78C19.16 82.26 17.29 84.16 14.45 84.16C11.85 84.16 9.93002 82.31 9.93002 78V66.49H7.40002Z" fill="white"/>
<path d="M59.9 61.73H30.86V90.77H59.9V61.73Z" fill="#0468B1"/>
<path d="M40.46 86V77.67C40.46 74.44 40.46 72.11 40.29 69.67H40.38C41.4463 71.8926 42.6555 74.0438 44 76.11L50.13 86H52.66V66.56H50.31V74.7C50.31 77.7 50.31 80.05 50.59 82.64H50.5C49.5009 80.4608 48.348 78.3555 47.05 76.34L40.87 66.53H38.11V86H40.46Z" fill="white"/>
<path d="M59.9 92.55H30.86V121.59H59.9V92.55Z" fill="#0468B1"/>
<path d="M50.29 98.79C49.13 97.79 47.29 97.18 44.85 97.18C43.2377 97.1631 41.6274 97.2971 40.04 97.58V116.71H42.54V109C43.1982 109.132 43.8691 109.189 44.54 109.17C45.6256 109.231 46.7123 109.07 47.7336 108.697C48.7549 108.324 49.6894 107.746 50.48 107C51.0024 106.446 51.4066 105.792 51.6679 105.076C51.9293 104.361 52.0423 103.6 52 102.84C52.0182 102.089 51.8739 101.342 51.577 100.652C51.2802 99.9618 50.8378 99.3436 50.28 98.84" fill="white"/>
<path d="M44.62 107.22C43.9212 107.236 43.223 107.169 42.54 107.02V99.48C43.3192 99.3435 44.109 99.2766 44.9 99.28C47.66 99.28 49.48 100.51 49.48 103.11C49.48 105.71 47.66 107.22 44.62 107.22Z" fill="#0468B1"/>
<path d="M29.04 92.58H0V121.62H29.04V92.58Z" fill="#0468B1"/>
<path d="M20.42 99.54C18.72 97.96 16.16 97.15 12.57 97.15C10.7759 97.1524 8.98448 97.2861 7.20996 97.55V116.63C8.73037 116.801 10.2602 116.874 11.79 116.85C15.56 116.85 18.55 115.85 20.39 114.07C21.3321 113.061 22.064 111.875 22.543 110.58C23.022 109.286 23.2385 107.909 23.18 106.53C23.2577 105.233 23.0509 103.934 22.5742 102.725C22.0974 101.516 21.3622 100.425 20.42 99.53" fill="white"/>
<path d="M12.28 114.85C11.4348 114.879 10.5887 114.839 9.75 114.73V99.4C10.7146 99.2089 11.6968 99.1217 12.68 99.14C17.97 99.14 20.57 101.99 20.54 106.62C20.54 111.85 17.63 114.87 12.28 114.85Z" fill="#0468B1"/>
<path d="M59.93 0H0.0300293V59.91H59.93V0Z" fill="#0468B1"/>
<path d="M51.41 31.19C50.57 32.38 49.56 33.49 48.78 34.7C48.9593 33.6838 48.9011 32.6399 48.61 31.65C47.9036 29.6832 47.4369 27.6385 47.22 25.56V24.74C47.71 26.94 49.87 28.45 49.73 30.91C49.7339 31.4591 49.6529 32.0056 49.49 32.53L49.59 32.42C49.83 31.196 50.1643 29.9924 50.59 28.82C51.29 27.2 52.17 25.57 51.82 23.61C52.309 24.8207 52.524 26.1246 52.4496 27.4282C52.3753 28.7317 52.0134 30.0027 51.39 31.15" fill="white"/>
<path d="M50.08 18.76C50.7909 19.7977 51.2278 20.9982 51.3501 22.25C51.4725 23.5019 51.2764 24.7643 50.78 25.92C50.3927 26.8839 50.1241 27.8913 49.98 28.92C49.9 28.74 49.89 28.5 49.82 28.3C49.26 26.16 47.23 24.62 46.39 22.6C46.1161 21.9328 45.9117 21.2391 45.78 20.53C46.67 22.18 48.87 23.03 49.47 24.85C49.6517 25.3482 49.7791 25.8645 49.85 26.39C49.867 26.3902 49.8834 26.3842 49.8963 26.3732C49.9092 26.3621 49.9176 26.3468 49.92 26.33C49.6827 24.4254 49.7096 22.4972 50 20.6C50.0699 19.6358 49.8356 18.674 49.33 17.85C49.69 18.05 49.85 18.45 50.09 18.76" fill="white"/>
<path d="M49.09 18.4C49.46 20.07 48.92 21.71 49.26 23.4C48.35 21.6 46.41 20.76 45.08 19.32C44.3605 18.47 43.9082 17.4263 43.78 16.32C44.54 18.16 46.6 18.57 47.78 20.11C48.104 20.4905 48.3672 20.9189 48.56 21.38C47.9905 19.8689 47.5326 18.3181 47.19 16.74C46.9324 16.0419 46.4729 15.4362 45.87 15C46.6628 15.2347 47.3788 15.6761 47.9447 16.2788C48.5105 16.8816 48.9058 17.624 49.09 18.43" fill="white"/>
<path d="M44.94 14.55C45.9901 15.5785 46.6899 16.9115 46.94 18.36L47.13 18.8C45.4114 17.5585 43.9452 16.0006 42.81 14.21L41.48 12.87C42.709 13.2268 43.8664 13.7953 44.9 14.55" fill="white"/>
<path d="M22.73 13.25C24.9935 12.1383 27.4783 11.5504 30 11.53C33.0113 11.5414 35.9583 12.4024 38.5021 14.0139C41.0459 15.6255 43.0833 17.9222 44.38 20.64C46.0787 24.1306 46.4346 28.124 45.38 31.86C44.6936 34.3006 43.4405 36.5447 41.7228 38.4094C40.0051 40.2741 37.8712 41.7068 35.495 42.5908C33.1188 43.4748 30.5674 43.7851 28.0486 43.4965C25.5298 43.2079 23.1147 42.3286 21 40.93C18.68 39.3588 16.8105 37.2089 15.5766 34.6932C14.3427 32.1775 13.7871 29.3831 13.9649 26.5867C14.1427 23.7903 15.0477 21.0889 16.5903 18.7497C18.1329 16.4105 20.2597 14.5147 22.76 13.25" fill="white"/>
<path d="M18.12 13.09C17.0296 14.1561 16.0696 15.3477 15.26 16.64C14.4284 17.5119 13.5361 18.3239 12.59 19.07C13.07 18.07 13.09 16.9 13.77 15.99C14.77 14.3 16.53 13.71 18.12 13.09Z" fill="white"/>
<path d="M11.7 16.67C12.2316 15.9834 12.9722 15.4885 13.81 15.26C12.23 16.35 12.33 18.26 11.81 19.91C11.65 20.51 11.37 21.06 11.23 21.68H11.28C11.5682 20.9554 12.008 20.3007 12.57 19.76C13.7 18.76 15.36 18.08 15.91 16.55C15.91 18.68 14.11 20.35 12.41 21.55C11.6897 22.1329 11.0887 22.8493 10.64 23.66C10.64 23.12 10.73 22.58 10.69 22.01C10.5 20.15 10.37 18.01 11.69 16.64" fill="white"/>
<path d="M8.49997 23C8.50923 21.2205 9.1629 19.5046 10.34 18.17C10.34 18.17 10.39 18.12 10.43 18.12C9.21997 19.97 10.22 22.29 10.17 24.39L9.99997 26.58C9.99997 26.58 9.99997 26.66 10.08 26.63C10.1395 26.3864 10.1829 26.1392 10.21 25.89C10.5 24.16 12 22.89 13.32 21.73C13.5989 21.4375 13.8255 21.0992 13.99 20.73C13.872 21.6046 13.626 22.457 13.26 23.26C12.26 25.26 10.34 26.89 9.99997 29.17C9.83997 27 8.34997 25.36 8.49997 23Z" fill="white"/>
<path d="M7.57995 25.72C7.68543 25.1306 7.85303 24.5541 8.07995 24C7.58995 26.49 9.26995 28.28 9.81995 30.45C9.97605 31.2711 10.1797 32.0825 10.4299 32.88C10.4299 32.88 10.4899 32.88 10.5099 32.88C9.68995 30.58 10.8699 28.45 12.0599 26.65C12.336 26.1555 12.5382 25.6231 12.6599 25.07C12.7005 26.1811 12.603 27.2929 12.3699 28.38C12.0799 29.75 11.6499 31.05 11.2799 32.38C11.0774 33.2396 11.057 34.132 11.2199 35L11.0999 34.9C10.2299 33.27 8.50995 32 7.99995 30.26C7.50422 28.8009 7.36031 27.2453 7.57995 25.72Z" fill="white"/>
<path d="M7.50005 30.59C7.69005 33.23 10.5 34.59 11.85 36.81C12.1368 37.2834 12.4719 37.7258 12.85 38.13C12.78 37.85 12.53 37.61 12.43 37.32C11.9674 36.3494 11.7872 35.2682 11.91 34.2C12.04 32.85 12.6 31.6 12.39 30.2C13.55 32.7 13.2 35.81 13.84 38.52C14.0577 39.0923 14.3047 39.6531 14.58 40.2C12.2 38.56 9.00005 37 7.90005 34.05C7.4985 32.9437 7.36152 31.7588 7.50005 30.59Z" fill="white"/>
<path d="M8.92004 36.65C10.25 39.65 13.57 39.9 15.8 41.73C16.1866 42.0871 16.6249 42.3838 17.1 42.61C16.5459 42.1445 16.0611 41.6024 15.66 41C14.36 39.19 14.82 36.65 13.84 34.7C14.7339 35.7162 15.4842 36.8501 16.07 38.07C16.87 40.07 17.17 42.25 19.02 43.74C17.02 43.08 14.68 43.27 12.92 42.04C11.9194 41.4639 11.0479 40.6881 10.3597 39.7608C9.67162 38.8336 9.18156 37.7747 8.92004 36.65Z" fill="white"/>
<path d="M12.33 42.25C14.45 44.67 17.93 43.86 20.76 44.49C21.1468 44.5995 21.548 44.6501 21.95 44.64C21.61 44.43 21.15 44.45 20.78 44.26C18.56 43.47 18.23 41.07 17.02 39.46C18.5425 40.5811 19.9675 41.8289 21.28 43.19C22.3002 44.0175 23.5218 44.5592 24.82 44.76C24.51 44.87 24.1 44.84 23.77 44.93C21.45 45.5 18.86 46.44 16.39 45.6C14.6623 45.0358 13.212 43.8391 12.33 42.25Z" fill="white"/>
<path d="M41.18 47.88C38.79 48.78 36.29 47.88 34.42 46.42C33.66 45.94 32.99 45.25 32.01 45.31C31.6735 45.2911 31.3361 45.3248 31.01 45.41C32.8789 46.283 34.5864 47.4665 36.06 48.91C35.781 49.2122 35.4766 49.4899 35.15 49.74C33.7372 48.1036 32.0441 46.7321 30.15 45.69C29.7951 45.7816 29.4574 45.9302 29.15 46.13C27.5539 47.0893 26.1473 48.3332 25 49.8L24 49.01C25.4646 47.5108 27.1848 46.2849 29.08 45.39C27.26 44.82 26.08 46.39 24.69 47.12C23.8527 47.7243 22.8825 48.1187 21.861 48.2701C20.8395 48.4215 19.7966 48.3255 18.82 47.99C17.7208 47.6173 16.7453 46.9497 16 46.06C16.8235 46.5674 17.7544 46.8751 18.7181 46.9584C19.6818 47.0418 20.6516 46.8985 21.55 46.54C23.89 45.54 26.32 44.24 29.13 44.86C29.58 44.86 30.01 45.3 30.42 44.93C32.5336 44.4293 34.757 44.7099 36.68 45.72L38.55 46.46C39.4388 46.7896 40.3922 46.9079 41.3346 46.8055C42.277 46.7031 43.1827 46.3828 43.98 45.87C43.2273 46.7899 42.2336 47.4823 41.11 47.87" fill="white"/>
<path d="M43.75 45.41C41.06 46.41 38.35 45.18 35.75 44.76L35.26 44.7C36.5117 44.4995 37.6881 43.9717 38.67 43.17C39.9994 41.7396 41.4479 40.4249 43 39.24C41.81 40.76 41.69 42.93 39.72 43.91C39.2014 44.1529 38.6669 44.36 38.12 44.53C38.8193 44.4715 39.5141 44.368 40.2 44.22C42.84 43.81 45.85 44.22 47.7 41.98C46.8593 43.5967 45.426 44.8257 43.7 45.41" fill="white"/>
<path d="M45.2401 42.67C43.8701 43.04 42.4001 43.16 41.0601 43.61C43.3201 41.67 43.2001 38.67 44.7101 36.39C45.1476 35.7154 45.6251 35.0676 46.1401 34.45C45.2301 36.29 45.6201 38.68 44.5701 40.45C44.1365 41.1991 43.5863 41.8742 42.9401 42.45C43.1564 42.3973 43.356 42.2906 43.5201 42.14C45.2301 40.43 47.4701 39.95 49.3201 38.56C50.0803 37.9868 50.6825 37.2298 51.0701 36.36C50.7201 39.19 47.9001 41.85 45.2401 42.7" fill="white"/>
<path d="M48.63 37.84C47.57 38.53 46.5 39.18 45.47 39.97V39.88C47.04 37.27 46.27 33.7 47.24 30.88L47.6 29.88C47.4 31.66 48.17 33.17 48.12 34.96C48.0556 35.9963 47.7099 36.9955 47.12 37.85H47.22C47.9191 36.8103 48.6735 35.8088 49.48 34.85C50.87 33.51 52.28 32.14 52.48 30.28C52.95 33.38 51.21 36.1 48.63 37.86" fill="white"/>
<path d="M36.6199 37.63L36.7299 37.48C37.2369 37.1253 37.7121 36.7271 38.15 36.29H38.2099C38.1099 36.29 37.99 36.36 37.88 36.29C37.7872 36.2368 37.7127 36.1567 37.6663 36.0603C37.6199 35.9639 37.6037 35.8557 37.6199 35.75L36.6199 34.75L36.56 34.6C36.4783 34.777 36.3547 34.9315 36.2 35.05C36.2 35.18 36.2 35.37 36.32 35.46C36.64 35.56 37.0499 35.77 37.1199 36.15C36.9899 36.5 36.3199 36.82 36.7299 37.2C36.8699 37.39 36.5499 37.46 36.5999 37.62" fill="#0468B1"/>
<path d="M30.91 24.68C31.1 24.78 31.2001 24.59 31.3601 24.55C31.5714 24.6086 31.7576 24.7351 31.89 24.91C32.03 24.97 32.17 24.91 32.3 24.84C32.38 24.18 33.21 24.27 33.46 23.65L33.3101 23.71C33.2401 23.62 33.09 23.66 33.09 23.51C33.2281 23.3578 33.3903 23.2294 33.57 23.13C32.87 22.6807 32.1041 22.3433 31.3 22.13C30.9628 22.0897 30.6286 22.0262 30.3 21.94C30.3686 22.4874 30.4053 23.0383 30.41 23.59L30.98 23.78C31.16 23.51 31.52 23.45 31.68 23.19C31.78 23.1 31.9 23.19 31.98 23.28C31.9951 23.4973 31.9644 23.7153 31.89 23.92C31.67 24.35 31.16 24.4 30.89 24.72" fill="#0468B1"/>
<path d="M39.42 30C39.1171 31.1001 38.6375 32.1437 38 33.09C37.7842 33.4783 37.4916 33.8185 37.14 34.09L37.86 34.73C37.86 34.73 37.86 34.63 37.86 34.57C37.86 34.51 37.86 34.37 38.02 34.38C38.37 34.38 38.38 34.75 38.58 34.94C38.58 35.25 38.81 35.48 38.72 35.76C40.6652 33.6934 41.8012 30.9955 41.92 28.16L42.03 28.03C41.31 28.1 40.55 28.03 39.81 28.03L39.69 28C39.6932 28.4789 39.6564 28.9572 39.58 29.43L39.84 29.72C39.8747 29.7773 39.8877 29.8451 39.8767 29.9111C39.8657 29.9772 39.8314 30.0371 39.78 30.08C39.7288 30.1206 39.6654 30.1426 39.6 30.1426C39.5347 30.1426 39.4712 30.1206 39.42 30.08" fill="#0468B1"/>
<path d="M37.4999 23C37.1904 22.4929 36.8321 22.0173 36.4299 21.58V21.67C35.6899 22.44 34.8899 23.23 34.1899 24.01C34.2287 24.1102 34.3037 24.1923 34.3999 24.24C34.3999 24.05 34.5399 23.88 34.5599 23.69C34.7499 23.42 35.0299 23.59 35.2799 23.64C35.6587 23.6306 36.0374 23.6607 36.4099 23.73C36.6999 23.87 36.7299 24.24 36.9899 24.38C37.019 24.4304 37.0269 24.4903 37.0119 24.5465C36.9969 24.6027 36.9602 24.6507 36.9099 24.68C36.9899 25.28 37.2799 24.52 37.5799 24.68C37.7099 24.73 37.8699 24.68 37.9599 24.84C38.0499 25 38.3099 25.05 38.3299 25.28C38.3499 25.51 38.1799 25.43 38.0899 25.5C38.1699 25.74 37.8499 25.89 37.9599 26.15C38.4199 26.23 38.4399 25.7 38.6599 25.46C38.57 25.0368 38.4184 24.6291 38.2099 24.25C37.9499 24.25 37.7899 23.89 37.5199 23.83C37.0099 23.63 37.5999 23.31 37.5199 23.01" fill="#0468B1"/>
<path d="M30.38 39.64C31.0133 39.5074 31.6547 39.4172 32.3 39.37C32.1615 39.3382 32.0359 39.2649 31.94 39.16C31.57 39.16 31.39 38.75 31.27 38.45C31.15 38.15 31.36 38.06 31.45 37.88C31.29 37.55 30.8 37.79 30.51 37.67C30.43 37.61 30.37 37.51 30.26 37.49L30.38 37.67C30.4213 38.336 30.4213 39.004 30.38 39.67" fill="#0468B1"/>
<path d="M30.89 33.42C31.1 33.42 30.95 33.68 31.1 33.76C31.43 33.66 31.68 34.04 31.94 33.76C31.94 33.39 32.35 33.42 32.58 33.32C32.81 33.22 33.35 32.82 33.31 32.32L33.25 32.25C33 32.25 32.88 32.44 32.7 32.59C32.52 32.74 32.36 32.35 32.17 32.44C32.1772 32.4588 32.1894 32.4752 32.2052 32.4876C32.2211 32.4999 32.24 32.5077 32.26 32.51C32.26 32.57 32.32 32.69 32.26 32.74C31.98 32.99 31.86 32.62 31.6 32.65V32.74C31.6 32.8 31.6 32.89 31.51 32.85C31.34 32.59 31.02 32.69 30.86 32.46C30.76 32.4 30.66 32.46 30.59 32.54C30.52 32.62 30.28 32.54 30.34 32.73C30.14 32.8 30.12 33.01 29.97 33.14C29.72 33.14 29.61 33.38 29.38 33.38C29.38 33.38 29.38 33.5 29.45 33.51C29.6033 33.5559 29.7667 33.5559 29.92 33.51C30.16 33.13 30.55 33.45 30.92 33.31" fill="#0468B1"/>
<path d="M33.25 30.3C33.2484 30.4378 33.2943 30.572 33.38 30.68C33.69 30.63 33.56 31.06 33.84 31.03C34.12 31 33.84 30.84 33.9 30.74C33.96 30.64 33.62 30.47 33.46 30.33C33.3 30.19 33.46 30.24 33.46 30.2C33.46 30.16 33.28 30.2 33.21 30.3" fill="#0468B1"/>
<path d="M32.8899 19.28C32.0514 19.0225 31.1912 18.8417 30.3199 18.74L30.3999 18.92V21.08H30.6099C31.9167 21.2209 33.1573 21.7269 34.1899 22.54L34.2499 22.71C34.6609 22.2136 35.1017 21.7428 35.5699 21.3L35.9999 21L35.8099 20.92C34.9588 20.2015 33.9871 19.6395 32.9399 19.26" fill="#0468B1"/>
<path d="M17.9999 28.19L18.1699 29.66C18.3157 30.2079 18.4194 30.7662 18.4799 31.33C18.5599 31.21 18.4799 30.97 18.7299 30.94C18.6399 30.77 18.8899 30.62 18.7299 30.47C18.7451 30.0735 18.9052 29.6963 19.1799 29.41C19.5899 29.41 19.6199 28.86 20.0299 28.84C20.2399 28.84 20.3699 29.11 20.4599 29.2C20.3556 29.0201 20.2909 28.8199 20.2702 28.613C20.2496 28.406 20.2733 28.197 20.3399 28L20.1599 28.08C19.4196 28.1087 18.6782 28.092 17.9399 28.03L17.9999 28.19Z" fill="#0468B1"/>
<path d="M32.35 31.93C32.54 31.73 32.95 31.73 32.96 31.45C32.68 31.45 32.54 31.56 32.35 31.71C32.35 31.77 32.24 31.88 32.35 31.93Z" fill="#0468B1"/>
<path d="M37.4301 27.92L37.6701 28.17C37.9201 28.33 37.7601 28.69 38.0201 28.84C38.2801 28.99 38.4401 29.36 38.5801 29.63C38.608 29.5548 38.6314 29.478 38.6501 29.4C38.7601 28.96 38.7401 28.46 38.8801 28.03C38.3945 28.1006 37.8994 28.0631 37.4301 27.92Z" fill="#0468B1"/>
<path d="M34.21 33.51C34.48 33.58 34.67 33.92 35.01 33.82C35.35 33.72 35.77 33.91 36.01 33.61C36.01 33.31 36.23 33.1 36.36 32.84H36.45C36.61 33.01 36.61 33.26 36.68 33.44C36.9 33.2 37.08 32.93 37.28 32.69C37.8077 31.9384 38.1877 31.0935 38.4 30.2C38.1864 30.2114 37.9749 30.2483 37.77 30.31C37.54 30.31 37.26 30.43 37.06 30.31C36.86 30.19 36.94 30.31 36.95 30.41C36.96 30.51 36.79 30.68 36.6 30.63C36.41 30.58 36.46 30.41 36.41 30.3C36.4252 30.3826 36.4252 30.4674 36.41 30.55C36.2584 30.6857 36.1211 30.8365 36 31C35.83 31.18 35.56 31.12 35.39 31.27C35.39 31.65 34.93 31.57 34.69 31.7C34.69 31.7 34.69 31.75 34.75 31.79C34.8096 31.8132 34.8749 31.818 34.9373 31.8037C34.9997 31.7895 35.0563 31.7568 35.1 31.71C35.43 31.8 35.36 31.38 35.56 31.23C35.76 31.08 35.88 31.06 36.05 31.18C36.2169 31.4111 36.2885 31.6976 36.25 31.98C36.05 32.17 36.15 32.48 36.02 32.71C36.02 32.97 35.73 33.09 35.77 33.36C35.7091 33.41 35.6387 33.4472 35.5632 33.4695C35.4876 33.4919 35.4083 33.4988 35.33 33.49C34.6869 33.2479 34.0142 33.0932 33.33 33.03C33.2994 33.0429 33.274 33.0657 33.2577 33.0946C33.2414 33.1236 33.2352 33.1571 33.24 33.19C33.53 33.34 33.88 33.35 34.18 33.47" fill="#0468B1"/>
<path d="M29.45 40.51L29.53 40.39L29.29 40.45C26.2403 40.3082 23.3466 39.0604 21.15 36.94V37.03L19.51 38.69C21.8867 40.8326 24.8441 42.2243 28.01 42.69C28.5433 42.7219 29.0742 42.7854 29.6 42.88L29.48 42.69L29.45 40.51Z" fill="#0468B1"/>
<path d="M26.23 31.9C27.0569 32.588 28.0501 33.0466 29.11 33.23C29.17 33.01 29.11 32.74 29.19 32.56C29.27 32.38 29.48 32.39 29.65 32.42C29.6719 32.4153 29.6923 32.4054 29.7096 32.3912C29.7268 32.377 29.7405 32.3588 29.7493 32.3383C29.7581 32.3177 29.7618 32.2953 29.7602 32.273C29.7586 32.2507 29.7517 32.2291 29.74 32.21C29.51 32.21 29.61 31.91 29.53 31.77C29.45 31.63 29.68 31.7 29.65 31.6C29.62 31.5 29.72 31.33 29.59 31.19C29.59 31.19 29.66 31.12 29.7 31.09C29.22 31.29 28.7 31 28.27 30.81C28.06 30.69 27.76 30.57 27.72 30.31C27.2687 30.8808 26.7703 31.4126 26.23 31.9Z" fill="#0468B1"/>
<path d="M25.4099 29.41C25.3399 29.41 25.3299 29.41 25.2599 29.41C25.1899 29.41 25.1699 29.41 25.1399 29.41C25.1399 28.95 24.6299 29.22 24.4399 28.98C24.6699 29.4 24.7799 29.87 25.0199 30.28C25.2599 30.69 25.4799 30.94 25.6199 31.28C25.8181 30.9994 26.0424 30.7382 26.2899 30.5C26.3087 30.3883 26.2836 30.2737 26.2199 30.18C26.1499 30.01 26.2199 29.78 26.0799 29.63C25.8799 29.71 26.1599 29.91 26.0799 30.03C26.0619 30.0398 26.0419 30.0453 26.0214 30.0458C26.0009 30.0464 25.9806 30.0422 25.962 30.0334C25.9435 30.0246 25.9273 30.0116 25.9148 29.9953C25.9023 29.9791 25.8937 29.9602 25.8899 29.94C25.7998 29.9178 25.7168 29.8731 25.6486 29.8102C25.5805 29.7472 25.5293 29.668 25.4999 29.58C25.6599 29.48 25.4999 29.44 25.4199 29.36" fill="#0468B1"/>
<path d="M27 29.64C26.9376 29.8393 26.8238 30.0186 26.67 30.16C26.87 30.02 27 29.78 27.25 29.76L27 29.64Z" fill="#0468B1"/>
<path d="M29.26 37.4C27.3873 37.2937 25.5913 36.6206 24.11 35.47C24.16 35.66 24.42 35.78 24.34 36.02C24.26 36.26 23.93 36.24 23.71 36.24C23.25 36.16 22.91 36.51 22.49 36.56C22.07 36.61 21.96 36.2 21.6 36.24C23.7216 38.1959 26.4503 39.3644 29.33 39.55L29.55 39.7L29.45 39.43V37.32L29.26 37.4Z" fill="#0468B1"/>
<path d="M20.64 36.36C20.3663 36.1345 20.1182 35.8796 19.9 35.6C19.6184 35.5246 19.3777 35.3414 19.23 35.09C19.15 35 19.23 34.84 19.13 34.78L19 34.9C18.72 35.03 18.62 34.74 18.42 34.62C18.22 34.5 18.3 34.02 17.96 34.1C17.83 34.1 17.79 33.95 17.71 33.88C17.4 33.88 17.32 33.56 17.15 33.4C17.15 33.47 17.15 33.56 17.06 33.61C16.74 33.68 16.63 33.29 16.41 33.13C16.35 33.13 16.31 33.22 16.23 33.2C16.0413 33.026 15.9268 32.7861 15.91 32.53C15.64 32.24 15.76 31.77 15.81 31.41C15.86 31.31 16 31.26 15.97 31.14C15.94 31.02 16.22 30.95 16.39 30.94C16.4551 30.9801 16.5099 31.0349 16.55 31.1C16.65 31.03 16.88 31.1 16.79 30.87C16.9435 30.7617 17.1229 30.6962 17.31 30.68C17.4144 30.8543 17.5349 31.0183 17.67 31.17L17.6 31C17.3951 30.2042 17.2678 29.3904 17.22 28.57C17.22 28.57 17.12 28.5 17.22 28.46C17.208 28.3102 17.208 28.1598 17.22 28.01L17 28.09H14.78C14.9125 30.5439 15.5961 32.9365 16.78 35.09C17.4188 36.1363 18.1271 37.1385 18.9 38.09L20.49 36.44L20.64 36.36Z" fill="#0468B1"/>
<path d="M23.2 17.73C22.7 18.07 22.25 18.52 21.73 18.82C22.3102 19.2711 22.8521 19.7694 23.35 20.31V20.46C24.6933 19.1918 26.3737 18.3378 28.19 18C28.6025 17.903 29.0273 17.8693 29.45 17.9C29.395 17.1343 29.395 16.3657 29.45 15.6C27.2215 15.7153 25.0671 16.438 23.22 17.69" fill="#0468B1"/>
<path d="M21.3 26.06C21.2691 26.4619 21.2022 26.8601 21.1 27.25C21.4279 27.1653 21.772 27.1653 22.1 27.25C21.92 27.15 22.1 26.92 21.97 26.79C21.84 26.66 21.91 26.35 22.1 26.22C22.1 25.89 22.43 25.72 22.46 25.43C22.49 25.14 22.93 25.32 23.12 25.14C23.31 24.96 23.12 24.97 23.12 24.88C23.28 24.66 23.53 24.67 23.72 24.55C23.8533 24.3266 24.0343 24.1354 24.25 23.99C24.74 23.99 24.74 23.34 25.2 23.32C24.5769 22.8101 23.9858 22.2624 23.43 21.68C22.3347 22.9358 21.5958 24.462 21.29 26.1" fill="#0468B1"/>
<path d="M21.5999 29.3C21.5999 29.15 21.4099 29.12 21.4299 28.97C21.4499 28.82 21.4299 28.2 21.8299 28.07C21.7058 28.1141 21.5735 28.1306 21.4423 28.1185C21.311 28.1064 21.184 28.066 21.0699 28L21.1799 28.19C21.2848 28.7063 21.3251 29.2337 21.2999 29.76C21.3899 29.6 21.4099 29.4 21.5999 29.3Z" fill="#0468B1"/>
<path d="M23.8 35.06L23.77 35.01L23.8 35.1V35.06Z" fill="#0468B1"/>
<path d="M21.15 19.49L20.28 20.59C18.9157 22.5399 18.1258 24.8335 18 27.21H20.19L20.39 27.29C20.31 27.23 20.33 27.14 20.3 27.06C20.423 24.8254 21.3212 22.7037 22.84 21.06C22.2383 20.5433 21.6767 19.9817 21.16 19.38L21.15 19.49Z" fill="#0468B1"/>
<path d="M27.89 34.42C28.0516 34.2388 28.2588 34.1041 28.49 34.03C27.78 34.17 27.15 33.66 26.55 33.38C26.1591 33.1723 25.8179 32.8823 25.55 32.53C25.0895 33.1241 24.5702 33.6703 24 34.16C24.25 34.16 24.38 34.45 24.59 34.57C25.7937 35.4793 27.1892 36.1018 28.67 36.39L28.29 36.21C28 35.89 27.59 35.5 27.58 35.05C27.86 34.95 27.83 34.63 27.93 34.42" fill="#0468B1"/>
<path d="M22.4299 28.07L22.3599 28.49C22.2699 28.74 21.9599 28.56 21.8199 28.73C21.6799 28.9 21.8199 29.05 21.9099 29.18C21.6899 29.69 22.4099 29.85 22.3999 30.31C22.6299 30.6 22.3999 31.02 22.6899 31.31C22.7599 31.83 22.6199 32.53 23.0799 32.94L23.1599 33.44C23.2499 33.78 22.7499 33.69 22.8099 33.99C22.9099 33.99 22.9299 34.07 22.9399 34.1C23.58 33.3557 24.2681 32.6542 24.9999 32L24.6999 31.69C24.1162 30.8687 23.6983 29.9414 23.4699 28.96L23.2399 28.84C23.1879 29.074 23.1512 29.3112 23.1299 29.55L22.9999 29.6C22.8299 29.6 22.7199 29.46 22.5799 29.37C22.4399 29.28 22.4599 29.14 22.5799 29.07C22.6471 29.0649 22.714 29.0825 22.7699 29.12C22.8399 29.04 22.7699 28.91 22.8499 28.8C22.9299 28.69 22.6999 28.43 22.8499 28.26C23.0099 28.26 23.1199 28.43 23.1799 28.53C23.2399 28.63 23.4499 28.46 23.5799 28.4C23.7099 28.34 23.7699 28.08 23.5799 28C23.6652 27.6925 23.6652 27.3675 23.5799 27.06C23.4899 26.8 23.1999 26.84 22.9799 26.86C22.3299 27.07 23.0899 27.56 22.9299 27.96C22.8299 28.19 22.5999 27.96 22.4299 28.07Z" fill="#0468B1"/>
<path d="M42.88 28L42.75 27.9L42.83 28.12C42.7121 30.6827 41.8311 33.1516 40.3 35.21C40.0327 35.5838 39.7165 35.9201 39.36 36.21C39.9985 36.76 40.5936 37.3584 41.14 38L41.2 37.88C43.6385 35.2015 45.0548 31.7493 45.2 28.13L45.3 27.94L45.18 28H42.88Z" fill="#0468B1"/>
<path d="M21.26 18.26V18.15C23.4756 16.0635 26.3692 14.8457 29.41 14.72L29.34 14.53V12.61L29.4 12.39C26.3034 12.5046 23.3134 13.5501 20.82 15.39C20.33 15.72 19.9 16.23 19.4 16.52H19.47C20.108 17.0345 20.7002 17.6033 21.24 18.22" fill="#0468B1"/>
<path d="M29.34 18.8C27.3653 18.9677 25.4952 19.7592 24 21.06C24.5976 21.5559 25.1653 22.0868 25.7 22.65C25.7446 22.5932 25.7847 22.533 25.82 22.47C26.5441 21.9041 27.3685 21.48 28.25 21.22C28.6421 21.1034 29.0516 21.056 29.46 21.08C29.37 20.2959 29.37 19.5041 29.46 18.72L29.34 18.8Z" fill="#0468B1"/>
<path d="M29.4501 22C28.1611 22.1144 26.9553 22.6853 26.05 23.61H26.22C26.41 23.8 26.7201 23.76 26.8701 24.02C27.0201 24.28 26.73 24.14 26.74 24.26C26.75 24.38 26.8401 24.26 26.8701 24.36C26.9001 24.46 26.9901 24.27 27.0401 24.21C27.0901 24.15 27.27 24.4 27.47 24.4C27.501 24.375 27.5368 24.3567 27.5752 24.3461C27.6136 24.3356 27.6537 24.333 27.6931 24.3387C27.7325 24.3443 27.7703 24.358 27.8042 24.3788C27.8381 24.3997 27.8673 24.4273 27.89 24.46C28.02 24.34 28.29 24.46 28.33 24.24C28.58 23.98 28.44 23.57 28.81 23.4C28.93 23.47 28.81 23.59 28.81 23.71C29.05 23.81 29.3301 23.5 29.5301 23.71C29.4067 23.1487 29.3796 22.5704 29.4501 22Z" fill="#0468B1"/>
<path d="M29.53 25.54C29.4131 25.7029 29.264 25.8402 29.092 25.9434C28.9201 26.0466 28.7288 26.1135 28.53 26.14C28.43 26.27 28.45 26.55 28.2 26.52C28.12 26.7 27.85 26.8 27.96 27.06C27.8819 27.361 27.835 27.6693 27.82 27.98C27.35 28.27 27.48 27.58 27.25 27.44L27.16 27.58C27.07 27.58 27.01 27.58 26.94 27.48C26.87 27.38 26.75 27.43 26.69 27.48C26.63 27.53 26.42 27.8 26.46 28.04C26.5 28.28 26.18 28.13 26.21 28.28C26.48 28.2735 26.7483 28.2366 27.01 28.17C27.2 28.17 27.35 28.08 27.53 28.08C27.5691 28.0917 27.6023 28.1178 27.6227 28.1531C27.6432 28.1885 27.6494 28.2303 27.64 28.27H27.71C27.7695 28.2267 27.8134 28.1653 27.835 28.095C27.8566 28.0247 27.8549 27.9492 27.83 27.88C27.83 27.72 28.04 27.72 28.15 27.67C28.26 27.62 28.15 27.82 28.2 27.9C28.56 28.04 28.12 28.3 28.07 28.49C28.02 28.68 28.07 28.98 27.76 28.94C27.7335 28.9289 27.7119 28.9087 27.699 28.883C27.6862 28.8573 27.683 28.8278 27.69 28.8H27.64C27.6426 28.8738 27.6643 28.9458 27.7028 29.0088C27.7413 29.0719 27.7955 29.1239 27.86 29.16C28.08 28.98 28.09 28.66 28.41 28.62C28.73 28.58 28.34 28.18 28.59 28.04C29 28.04 29.44 27.85 29.78 28.18C29.78 28.33 29.7 28.4 29.78 28.51C29.7157 28.7056 29.6175 28.8883 29.49 29.05C29.5096 29.103 29.5115 29.1609 29.4952 29.2151C29.479 29.2692 29.4456 29.3166 29.4 29.35C29.3 29.84 28.74 29.61 28.4 29.77C28.9044 30.1478 29.5337 30.3194 30.16 30.25C30.51 30.25 30.35 29.81 30.53 29.62C30.64 29.07 31.16 29.45 31.47 29.3C31.5964 29.0656 31.6842 28.8123 31.73 28.55C31.638 28.4857 31.5684 28.3943 31.5307 28.2885C31.4931 28.1828 31.4893 28.068 31.52 27.96C31.39 27.77 31.4 27.44 31.1 27.4C31.1 27.34 31.1 27.26 31.1 27.21C31.1 27.16 31.26 26.98 31.31 26.84C31.13 26.73 31.18 26.46 31.19 26.31C30.88 26.4 30.85 25.99 30.62 25.9C30.56 25.72 30.36 25.69 30.2 25.66C29.82 25.84 29.76 25.37 29.47 25.26C29.47 25.17 29.37 25.04 29.47 24.97C29.57 24.9 29.8 24.97 29.97 24.97L29.84 24.9C29.71 24.76 29.43 24.85 29.26 24.9C29.42 25.06 29.35 25.35 29.45 25.55" fill="#0468B1"/>
<path d="M17.23 27.23L17.18 26.92C17.3091 24.4589 18.1383 22.0859 19.57 20.08C19.8751 19.6308 20.2345 19.221 20.64 18.86C20.12 18.37 19.58 17.81 19.04 17.27L19 17.05C16.7613 19.4594 15.3313 22.5081 14.91 25.77C14.82 26.25 14.91 26.77 14.79 27.23C15.6089 27.17 16.4311 27.17 17.25 27.23" fill="#0468B1"/>
<path d="M38.83 36.77C38.5251 37.1655 38.1527 37.504 37.73 37.77C37.21 38.29 36.37 38.4 36.1 39.16C35.82 39.41 35.73 39.81 35.34 39.95C35.19 40.34 34.78 40.31 34.55 40.59C33.88 41.19 33.45 40.21 32.85 40.09L31.62 40.31C31.2096 40.3799 30.7904 40.3799 30.38 40.31C30.44 41.1456 30.44 41.9844 30.38 42.82L30.53 42.72C34.2601 42.5602 37.8088 41.0662 40.53 38.51L38.86 37L38.83 36.77Z" fill="#0468B1"/>
<path d="M30.34 14.51C30.3422 14.4408 30.3668 14.3741 30.41 14.32C30.52 14.25 30.62 14.32 30.66 14.43C30.7 14.54 30.72 14.73 30.66 14.8C30.75 14.8 30.8 14.74 30.89 14.74C32.6485 14.8782 34.3553 15.4005 35.89 16.27C36.2 16.11 36.6 15.91 36.89 16.18C37.28 16.04 37.35 16.51 37.66 16.57C37.8702 16.6794 38.0547 16.8323 38.2013 17.0185C38.3478 17.2047 38.4531 17.42 38.51 17.65C38.58 17.79 38.8 17.89 38.83 18.04C39.1626 17.5195 39.5703 17.0511 40.04 16.65L40.31 16.53C37.9889 14.3226 35.0194 12.9202 31.84 12.53C31.32 12.4981 30.8024 12.4346 30.29 12.34C30.3605 13.0716 30.3605 13.8084 30.29 14.54" fill="#0468B1"/>
<path d="M30.34 17.94C30.6447 17.8902 30.9554 17.8902 31.26 17.94C32.8122 18.1487 34.2873 18.7435 35.55 19.67C35.3723 19.5173 35.2436 19.3156 35.18 19.09C35.1952 19.0812 35.2125 19.0766 35.23 19.0766C35.2476 19.0766 35.2648 19.0812 35.28 19.09C35.28 18.84 35.03 18.72 34.99 18.49C35.011 18.4633 35.0388 18.4427 35.0705 18.4304C35.1021 18.4181 35.1365 18.4145 35.17 18.42C35.4281 18.6713 35.6624 18.9457 35.87 19.24C36.05 19.17 36.19 19.24 36.32 19.38C36.45 19.52 36.41 19.81 36.58 19.97C36.58 20.44 37.19 20.7 37.16 21.17C37.16 21.29 37.3 21.17 37.35 21.25L37.83 21.84C37.8122 21.8665 37.8001 21.8964 37.7944 21.9279C37.7888 21.9593 37.7898 21.9916 37.7973 22.0226C37.8048 22.0537 37.8187 22.0828 37.8381 22.1082C37.8575 22.1336 37.882 22.1546 37.91 22.17C38.12 22.27 38.24 22 38.46 22.04C38.68 22.08 38.41 22.42 38.46 22.61C38.58 22.61 38.73 22.52 38.83 22.61C38.93 22.7 38.68 22.89 38.61 23.01C38.54 23.13 38.76 23.14 38.88 23.18C38.9142 23.1813 38.9476 23.1906 38.9775 23.2071C39.0075 23.2236 39.0332 23.2468 39.0526 23.2749C39.072 23.3031 39.0846 23.3354 39.0894 23.3692C39.0941 23.4031 39.0909 23.4376 39.08 23.47C39.48 23.88 38.96 24.33 39.15 24.77C39.1907 24.9067 39.1926 25.052 39.1555 25.1898C39.1184 25.3275 39.0438 25.4522 38.94 25.55C38.94 25.9 38.63 26.12 38.5 26.41L38.09 26.49C37.88 26.71 38.28 26.97 38.09 27.11H38.99L38.89 27.02C38.8271 26.8397 38.8043 26.6479 38.8233 26.4578C38.8423 26.2678 38.9026 26.0843 39 25.92C39.14 25.64 39.17 25.29 39.42 25.05C39.48 25.05 39.58 24.93 39.63 25.05C39.6582 25.33 39.6134 25.6125 39.5 25.87C39.6986 26.2728 39.7817 26.7228 39.74 27.17C40.53 27.12 41.31 27.11 42.08 27.11L42 27C41.9289 25.5728 41.5897 24.1717 41 22.87C40.83 22.87 40.71 23.01 40.52 22.96C40.4883 22.9487 40.4617 22.9262 40.4451 22.8968C40.4286 22.8674 40.4232 22.833 40.43 22.8C40.1563 22.4499 39.8624 22.116 39.55 21.8C39.14 21.8 38.96 21.37 38.55 21.32C38.14 21.27 38.45 20.66 37.98 20.8C37.8571 20.762 37.7458 20.6935 37.6566 20.6008C37.5674 20.5081 37.5032 20.3943 37.47 20.27C37.4912 20.0545 37.4595 19.8372 37.3775 19.6368C37.2956 19.4363 37.166 19.259 37 19.12C36.71 19.02 36.59 19.4 36.3 19.34C36.01 19.28 36.22 19.05 36.17 18.92C36.12 18.79 35.98 18.71 36 18.55C36.37 18.05 35.55 18.06 35.73 17.55C35.73 17.2 35.32 17.07 35.14 16.79C33.9151 16.2222 32.6096 15.8478 31.27 15.68C30.9308 15.6969 30.5915 15.6494 30.27 15.54L30.35 15.69C30.35 16.44 30.35 17.23 30.35 17.92" fill="#0468B1"/>
<path d="M39.0699 18.76C39.2399 18.76 39.2899 19 39.3999 19.12C39.9799 19.43 40.1299 20.06 40.6399 20.41C40.9299 21.01 41.6399 21.47 41.6399 22.16C42.3723 23.7118 42.7838 25.3954 42.8499 27.11L42.7899 27.21C42.8589 27.2065 42.9252 27.1821 42.9799 27.14H45.2799C45.1299 26.91 45.1899 26.59 45.1499 26.32C44.8159 22.8313 43.3313 19.5527 40.9299 17C40.4349 17.6016 39.904 18.1726 39.3399 18.71L39.0699 18.76Z" fill="#0468B1"/>
<path d="M30.66 14.13C30.73 14 30.91 14.05 31.01 14.13L32.16 13.63C32.3904 13.6176 32.6209 13.6539 32.8363 13.7366C33.0517 13.8193 33.2472 13.9466 33.41 14.11V14.17C33.2839 14.302 33.124 14.397 32.9477 14.4446C32.7714 14.4922 32.5855 14.4906 32.41 14.44C31.88 14.54 31.14 14.84 30.72 14.3C30.72 14.3 30.66 14.21 30.72 14.17" fill="white"/>
<path d="M37.5199 15.58C37.5999 15.5932 37.675 15.6269 37.7381 15.6777C37.8011 15.7285 37.85 15.7947 37.8799 15.87C37.8799 16.05 38.0499 16.2 37.8799 16.34C37.4499 16.46 37.4099 15.97 37.0799 15.85C37.0548 15.8178 37.0365 15.7807 37.0262 15.7412C37.0159 15.7016 37.0138 15.6604 37.0199 15.62C37.1699 15.44 37.3099 15.74 37.4799 15.62" fill="white"/>
</svg>
