<svg id="svg" version="1.1" xmlns="http://www.w3.org/2000/svg" xmlns:xlink="http://www.w3.org/1999/xlink" width="400" height="289" viewBox="0, 0, 400,289"><g id="svgg"><path id="path0" d="M157.514 44.816 C 157.514 44.965,157.775 45.087,158.092 45.087 C 158.410 45.087,158.671 44.984,158.671 44.859 C 158.671 44.734,158.410 44.612,158.092 44.588 C 157.775 44.564,157.514 44.667,157.514 44.816 M165.264 44.725 C 167.697 44.773,171.599 44.773,173.934 44.725 C 176.269 44.676,174.277 44.637,169.509 44.637 C 164.740 44.637,162.830 44.677,165.264 44.725 M154.624 45.520 C 154.127 45.804,154.048 45.936,154.372 45.944 C 154.631 45.949,155.004 45.759,155.202 45.520 C 155.642 44.990,155.552 44.990,154.624 45.520 M152.312 46.378 C 152.312 46.637,152.482 46.738,152.746 46.636 C 152.984 46.545,153.179 46.354,153.179 46.212 C 153.179 46.070,152.984 45.954,152.746 45.954 C 152.507 45.954,152.312 46.145,152.312 46.378 M151.084 46.579 C 150.647 46.738,150.289 47.068,150.289 47.312 C 150.289 47.612,150.103 47.707,149.716 47.605 C 149.231 47.479,149.187 47.539,149.434 47.999 C 149.667 48.434,149.637 48.508,149.284 48.373 C 149.042 48.280,148.844 48.356,148.844 48.541 C 148.844 48.726,148.710 48.795,148.547 48.694 C 148.383 48.593,147.983 48.813,147.658 49.183 C 147.332 49.553,147.147 49.694,147.247 49.498 C 147.366 49.264,147.276 49.198,146.989 49.308 C 146.748 49.401,146.561 49.562,146.575 49.666 C 146.649 50.221,146.500 50.592,146.263 50.446 C 146.115 50.354,145.660 50.589,145.251 50.968 C 144.426 51.733,144.281 52.172,144.938 51.920 C 145.291 51.785,145.307 51.852,145.031 52.294 C 144.846 52.590,144.519 52.765,144.305 52.683 C 143.794 52.487,142.404 53.995,142.607 54.525 C 142.694 54.751,142.572 55.009,142.336 55.100 C 142.100 55.190,141.908 55.431,141.908 55.636 C 141.908 55.840,141.712 56.082,141.474 56.174 C 141.236 56.265,141.040 56.482,141.040 56.655 C 141.040 56.829,141.171 56.890,141.329 56.792 C 141.850 56.470,141.633 56.946,140.896 57.741 C 140.141 58.556,139.912 59.415,140.535 59.100 C 140.733 58.999,140.636 59.127,140.318 59.385 C 140.000 59.643,139.727 60.010,139.712 60.201 C 139.697 60.393,139.584 60.781,139.461 61.064 C 139.338 61.347,139.309 61.997,139.397 62.509 C 139.485 63.021,139.489 63.277,139.407 63.078 C 139.172 62.509,138.856 62.656,138.803 63.358 C 138.776 63.711,138.911 64.099,139.103 64.221 C 139.370 64.391,139.367 64.443,139.090 64.446 C 138.891 64.449,138.728 64.654,138.728 64.901 C 138.728 65.149,138.857 65.273,139.014 65.175 C 139.178 65.074,139.226 65.190,139.128 65.446 C 139.034 65.692,138.873 65.841,138.770 65.777 C 138.668 65.714,138.619 82.947,138.661 104.074 L 138.738 142.486 122.043 142.508 C 112.860 142.520,105.152 142.570,104.913 142.620 C 104.675 142.669,104.027 142.783,103.473 142.872 C 102.919 142.961,102.421 143.171,102.365 143.338 C 102.310 143.505,102.070 143.642,101.832 143.642 C 101.171 143.642,99.252 145.728,98.888 146.842 C 98.668 147.514,98.552 152.556,98.528 162.500 C 98.507 170.810,98.380 177.183,98.234 177.204 C 98.093 177.224,97.847 177.272,97.688 177.312 C 97.529 177.352,97.209 177.401,96.977 177.421 C 96.744 177.440,96.289 177.741,95.965 178.089 C 95.641 178.437,95.376 178.629,95.376 178.515 C 95.376 178.402,94.953 178.534,94.436 178.809 C 93.920 179.084,93.396 179.282,93.272 179.247 C 93.149 179.213,92.972 179.382,92.880 179.622 C 92.788 179.862,92.563 180.058,92.380 180.058 C 92.196 180.058,91.884 180.318,91.686 180.636 C 91.487 180.954,91.176 181.214,90.994 181.214 C 90.584 181.214,87.572 184.244,87.572 184.657 C 87.572 184.822,87.263 185.160,86.885 185.408 C 86.507 185.656,85.975 186.441,85.703 187.154 C 85.431 187.867,85.010 188.648,84.767 188.891 C 81.646 192.012,82.606 205.726,86.285 210.586 C 86.661 211.083,86.877 211.591,86.765 211.716 C 86.653 211.840,86.701 211.863,86.872 211.765 C 87.044 211.668,87.499 212.098,87.884 212.723 C 88.269 213.347,88.655 213.861,88.741 213.865 C 88.828 213.869,89.461 214.398,90.150 215.040 C 92.351 217.092,96.181 219.226,97.800 219.303 C 97.941 219.309,98.144 219.456,98.250 219.628 C 98.825 220.558,109.447 220.857,110.512 219.973 C 110.757 219.770,111.093 219.687,111.259 219.790 C 111.425 219.892,111.561 219.831,111.561 219.653 C 111.561 219.475,111.696 219.414,111.862 219.516 C 112.028 219.619,112.321 219.579,112.513 219.427 C 112.704 219.275,113.350 218.993,113.948 218.801 C 114.545 218.608,114.965 218.338,114.879 218.200 C 114.794 218.062,114.988 218.000,115.310 218.062 C 115.632 218.124,115.896 218.052,115.896 217.902 C 115.896 217.753,116.091 217.630,116.329 217.630 C 116.568 217.630,116.763 217.413,116.763 217.148 C 116.763 216.883,116.846 216.750,116.947 216.851 C 117.460 217.363,122.909 212.143,122.847 211.199 C 122.827 210.904,123.803 209.898,124.008 210.002 C 124.206 210.102,125.002 208.053,124.903 207.699 C 124.865 207.562,125.016 207.302,125.238 207.121 C 125.559 206.859,126.194 205.093,126.474 203.685 C 126.498 203.566,126.544 203.436,126.576 203.396 C 127.004 202.864,127.185 197.016,126.832 195.087 C 126.672 194.212,126.514 193.300,126.480 193.059 C 126.446 192.817,126.319 192.460,126.198 192.264 C 126.077 192.068,126.058 191.777,126.156 191.618 C 126.254 191.460,126.197 191.329,126.029 191.329 C 125.860 191.329,125.723 191.079,125.723 190.772 C 125.723 190.466,125.548 190.040,125.335 189.827 C 125.121 189.613,124.981 189.206,125.023 188.921 C 125.064 188.636,124.915 188.333,124.690 188.247 C 124.465 188.160,124.353 187.973,124.441 187.831 C 124.529 187.689,124.455 187.572,124.277 187.572 C 124.100 187.572,124.026 187.456,124.114 187.314 C 124.202 187.171,124.079 186.980,123.840 186.888 C 123.601 186.796,123.430 186.620,123.460 186.496 C 123.547 186.139,122.429 184.397,122.110 184.394 C 121.951 184.393,121.566 184.011,121.254 183.546 C 120.943 183.081,120.585 182.763,120.459 182.841 C 120.334 182.919,120.231 182.782,120.231 182.538 C 120.231 182.294,119.878 181.864,119.447 181.582 C 119.016 181.300,118.354 180.783,117.976 180.434 C 117.247 179.760,112.294 177.168,111.735 177.168 C 111.493 177.168,111.423 174.971,111.473 169.003 C 111.511 164.512,111.546 159.700,111.551 158.309 L 111.561 155.780 125.149 155.780 L 138.737 155.780 138.660 173.527 C 138.618 183.288,138.681 191.214,138.801 191.140 C 139.074 190.972,139.087 191.453,138.816 191.723 C 138.495 192.044,138.464 192.775,138.771 192.775 C 138.925 192.775,138.971 192.905,138.873 193.064 C 138.775 193.223,138.864 193.355,139.073 193.357 C 139.304 193.360,139.338 193.444,139.162 193.574 C 138.797 193.842,138.806 195.346,139.174 195.611 C 139.326 195.720,139.455 195.939,139.461 196.098 C 139.490 196.976,139.972 198.864,140.203 199.007 C 140.351 199.098,140.396 199.295,140.304 199.445 C 140.017 199.909,140.476 200.867,140.988 200.871 C 141.407 200.875,141.415 200.914,141.040 201.156 C 140.802 201.310,140.755 201.438,140.937 201.441 C 141.118 201.443,141.350 201.776,141.451 202.179 C 141.553 202.583,141.740 202.849,141.868 202.770 C 141.996 202.691,142.316 203.076,142.578 203.625 C 142.840 204.175,143.186 204.624,143.348 204.624 C 143.509 204.624,143.642 204.812,143.642 205.041 C 143.642 205.271,143.931 205.661,144.284 205.908 C 144.637 206.156,144.828 206.358,144.707 206.358 C 144.587 206.358,144.632 206.627,144.808 206.955 C 145.062 207.430,145.211 207.482,145.537 207.212 C 145.862 206.941,145.989 206.982,146.151 207.410 C 146.436 208.162,147.055 208.738,147.370 208.544 C 147.515 208.454,147.566 208.641,147.483 208.959 C 147.341 209.501,148.091 209.762,149.227 209.565 C 149.358 209.542,149.381 209.659,149.279 209.824 C 149.177 209.990,148.939 210.037,148.752 209.929 C 148.555 209.817,148.513 209.846,148.651 209.997 C 148.784 210.142,149.040 210.260,149.221 210.260 C 149.507 210.260,149.576 210.733,149.454 211.857 C 149.436 212.020,149.096 212.277,148.697 212.429 C 148.299 212.580,147.989 212.804,148.009 212.927 C 148.101 213.491,147.953 213.892,147.708 213.741 C 147.556 213.647,147.490 213.983,147.557 214.519 C 147.638 215.175,147.592 215.333,147.407 215.037 C 147.058 214.480,146.682 215.333,146.903 216.179 C 146.990 216.512,146.915 216.718,146.719 216.681 C 146.537 216.647,146.382 216.879,146.377 217.197 C 146.371 217.515,146.273 217.926,146.159 218.110 C 146.045 218.294,146.025 218.635,146.114 218.867 C 146.203 219.100,146.056 219.509,145.788 219.778 C 145.392 220.174,145.360 220.400,145.620 220.971 C 145.866 221.510,145.858 221.677,145.586 221.681 C 145.358 221.684,145.386 221.785,145.665 221.965 C 145.940 222.143,145.969 222.247,145.745 222.250 C 145.247 222.256,145.261 245.899,145.759 246.504 C 146.020 246.820,146.015 246.943,145.737 247.036 C 145.308 247.181,145.250 248.732,145.665 248.988 C 145.824 249.087,145.954 249.420,145.954 249.728 C 145.954 250.037,146.100 250.257,146.279 250.217 C 146.458 250.177,146.670 250.325,146.750 250.546 C 146.839 250.792,146.769 250.869,146.569 250.746 C 146.367 250.621,146.243 250.770,146.243 251.139 C 146.243 251.466,146.361 251.734,146.505 251.734 C 146.649 251.734,146.699 251.994,146.616 252.312 C 146.507 252.727,146.607 252.890,146.967 252.890 C 147.403 252.890,147.417 252.955,147.073 253.378 C 146.727 253.803,146.739 253.842,147.167 253.682 C 147.535 253.544,147.614 253.615,147.480 253.964 C 147.368 254.253,147.417 254.358,147.608 254.240 C 147.915 254.050,148.305 254.667,148.398 255.491 C 148.498 256.371,149.272 257.803,149.647 257.803 C 149.860 257.803,149.945 257.948,149.836 258.125 C 149.726 258.302,149.816 258.560,150.035 258.698 C 150.641 259.082,150.867 259.012,150.867 258.439 C 150.867 258.153,151.023 257.763,151.214 257.572 C 151.484 257.303,151.484 257.148,151.214 256.879 C 150.794 256.459,150.752 254.729,151.156 254.480 C 151.534 254.246,151.529 252.976,151.150 252.742 C 150.727 252.481,150.781 218.226,151.205 217.716 C 151.399 217.482,151.407 217.341,151.228 217.341 C 150.846 217.341,150.860 212.975,151.243 212.488 C 151.444 212.231,151.431 212.009,151.202 211.780 C 150.784 211.362,150.764 210.213,151.170 209.962 C 151.349 209.852,151.370 209.638,151.221 209.440 C 150.823 208.911,150.823 206.358,151.220 206.358 C 151.478 206.358,151.477 206.274,151.214 206.012 C 150.781 205.579,150.762 204.267,151.181 203.848 C 151.408 203.621,151.408 203.479,151.181 203.339 C 150.787 203.096,150.768 201.541,151.156 201.301 C 151.544 201.061,151.525 199.040,151.131 198.645 C 150.905 198.419,150.905 198.277,151.131 198.137 C 151.304 198.030,151.445 197.154,151.445 196.190 C 151.445 194.654,151.499 194.483,151.885 194.803 C 152.251 195.107,152.296 195.092,152.152 194.716 C 152.056 194.468,151.788 194.191,151.555 194.102 C 151.234 193.979,151.203 193.805,151.427 193.386 C 151.651 192.968,151.622 192.793,151.308 192.673 C 150.855 192.499,150.981 67.361,151.434 67.052 C 151.713 66.862,151.702 65.014,151.424 65.187 C 151.306 65.259,151.278 65.060,151.360 64.744 C 151.443 64.427,151.626 64.240,151.767 64.327 C 151.908 64.414,152.023 64.275,152.023 64.017 C 152.023 63.760,151.893 63.630,151.734 63.728 C 151.575 63.827,151.445 63.647,151.445 63.329 C 151.445 63.011,151.314 62.670,151.153 62.570 C 150.769 62.333,150.831 55.176,151.222 54.697 C 151.425 54.447,151.415 54.335,151.191 54.335 C 150.793 54.335,150.757 52.703,151.150 52.460 C 151.328 52.350,151.303 52.076,151.081 51.721 C 150.802 51.274,150.805 51.033,151.096 50.566 C 151.299 50.242,151.365 49.819,151.243 49.627 C 150.783 48.900,150.922 47.540,151.521 46.893 C 151.853 46.535,152.069 46.253,152.001 46.266 C 151.934 46.278,151.521 46.419,151.084 46.579 M159.538 57.225 L 158.815 57.457 159.610 57.486 C 160.047 57.501,160.405 57.384,160.405 57.225 C 160.405 57.066,160.372 56.949,160.332 56.965 C 160.293 56.981,159.935 57.098,159.538 57.225 M161.461 57.298 C 161.534 57.417,178.917 57.489,200.089 57.457 C 221.261 57.425,237.673 57.362,236.561 57.317 C 231.743 57.120,161.340 57.102,161.461 57.298 M156.720 57.618 C 155.874 58.037,155.887 58.336,156.744 58.172 C 157.115 58.102,157.418 57.859,157.418 57.634 C 157.418 57.410,157.407 57.241,157.394 57.261 C 157.381 57.280,157.077 57.441,156.720 57.618 M154.804 58.600 C 154.853 58.681,154.752 59.022,154.580 59.359 C 154.281 59.945,154.291 59.949,154.795 59.467 C 155.151 59.127,155.223 58.881,155.018 58.709 C 154.851 58.568,154.755 58.520,154.804 58.600 M151.890 61.832 C 151.806 61.967,151.928 62.151,152.160 62.240 C 152.392 62.330,152.651 62.292,152.735 62.156 C 152.818 62.021,152.697 61.837,152.464 61.748 C 152.232 61.659,151.973 61.697,151.890 61.832 M171.676 79.794 C 171.676 79.939,171.958 80.058,172.303 80.058 C 172.647 80.058,172.838 79.967,172.728 79.857 C 172.415 79.544,171.676 79.501,171.676 79.794 M167.938 80.179 C 167.668 80.505,167.691 80.576,168.050 80.523 C 168.726 80.424,169.321 79.769,168.735 79.769 C 168.484 79.769,168.126 79.953,167.938 80.179 M165.607 81.455 C 165.607 81.640,165.427 81.792,165.207 81.792 C 164.741 81.792,164.381 82.871,164.767 83.109 C 164.911 83.198,165.029 83.050,165.029 82.780 C 165.029 82.510,165.256 82.123,165.534 81.920 C 165.812 81.716,165.942 81.453,165.823 81.334 C 165.704 81.215,165.607 81.269,165.607 81.455 M165.070 93.311 C 165.263 93.620,165.594 93.806,165.806 93.725 C 166.066 93.626,166.133 93.730,166.013 94.043 C 165.915 94.299,165.899 94.509,165.979 94.509 C 166.599 94.509,166.320 93.577,165.587 93.198 C 164.749 92.764,164.731 92.768,165.070 93.311 M168.497 95.054 C 168.497 95.372,169.335 96.080,169.507 95.907 C 169.578 95.836,169.380 95.559,169.066 95.291 C 168.753 95.023,168.497 94.916,168.497 95.054 M301.518 170.376 C 301.521 171.012,301.580 171.238,301.649 170.878 C 301.719 170.519,301.716 169.998,301.644 169.722 C 301.571 169.446,301.515 169.740,301.518 170.376 M108.382 189.875 C 110.112 190.281,111.608 191.019,111.396 191.363 C 111.252 191.594,111.819 192.040,112.266 192.048 C 114.165 192.079,114.475 202.074,112.643 204.232 C 111.595 205.466,110.898 206.069,110.519 206.069 C 110.324 206.069,110.119 206.203,110.065 206.366 C 109.767 207.261,104.301 207.822,101.879 207.207 C 101.243 207.046,100.527 206.864,100.289 206.803 C 100.051 206.742,99.773 206.682,99.672 206.670 C 99.310 206.626,97.110 204.189,97.110 203.832 C 97.110 203.632,97.001 203.468,96.869 203.468 C 96.737 203.468,96.614 203.306,96.598 203.107 C 96.581 202.908,96.414 202.160,96.226 201.445 C 95.852 200.016,95.691 196.472,95.990 196.243 C 96.094 196.163,96.240 195.639,96.315 195.078 C 96.688 192.286,99.056 190.069,102.045 189.714 C 102.907 189.612,103.650 189.495,103.696 189.454 C 103.908 189.266,106.953 189.540,108.382 189.875 M151.948 195.717 C 152.146 195.956,152.211 196.258,152.093 196.388 C 151.975 196.518,152.041 196.531,152.240 196.417 C 152.489 196.273,152.601 196.440,152.601 196.957 C 152.601 197.369,152.802 197.783,153.047 197.877 C 153.704 198.129,153.852 197.824,153.327 197.299 C 153.075 197.047,152.874 196.772,152.880 196.687 C 152.913 196.186,152.829 196.055,152.240 195.688 C 151.666 195.330,151.632 195.334,151.948 195.717 M156.358 200.145 C 156.358 200.383,156.569 200.578,156.827 200.578 C 157.211 200.578,157.231 200.500,156.936 200.145 C 156.739 199.906,156.528 199.711,156.468 199.711 C 156.407 199.711,156.358 199.906,156.358 200.145 M162.798 201.080 C 163.558 201.140,164.728 201.139,165.399 201.078 C 166.070 201.018,165.448 200.969,164.017 200.970 C 162.587 200.971,162.038 201.020,162.798 201.080 M167.805 201.205 C 168.021 201.554,170.452 201.500,170.675 201.140 C 170.800 200.937,170.325 200.857,169.260 200.900 C 168.378 200.936,167.723 201.073,167.805 201.205 M181.463 215.301 C 181.838 215.628,182.282 215.896,182.450 215.896 C 182.806 215.896,182.789 215.882,181.647 215.213 L 180.780 214.706 181.463 215.301 M159.321 217.821 C 159.122 217.902,158.960 218.159,158.960 218.394 C 158.960 218.628,158.831 218.741,158.674 218.644 C 158.510 218.542,158.462 218.658,158.560 218.916 C 158.655 219.162,158.856 219.364,159.008 219.364 C 159.159 219.364,159.214 219.254,159.131 219.119 C 159.048 218.984,159.240 218.594,159.559 218.252 C 160.123 217.646,160.056 217.525,159.321 217.821 M158.305 219.826 C 158.056 220.075,158.388 220.809,158.750 220.809 C 158.918 220.809,158.970 220.724,158.866 220.619 C 158.761 220.514,158.820 220.254,158.997 220.041 C 159.328 219.642,158.688 219.443,158.305 219.826 M185.680 233.960 C 185.680 239.841,185.719 242.206,185.766 239.215 C 185.813 236.224,185.813 231.412,185.765 228.522 C 185.718 225.631,185.680 228.078,185.680 233.960 M158.731 248.919 C 158.765 249.331,158.884 249.613,158.995 249.544 C 159.235 249.396,159.157 248.656,158.871 248.370 C 158.760 248.259,158.697 248.506,158.731 248.919 M184.762 249.494 C 184.140 250.299,184.071 250.573,184.535 250.395 C 184.789 250.297,184.927 250.148,184.842 250.063 C 184.757 249.978,184.832 249.734,185.009 249.521 C 185.186 249.307,185.266 249.133,185.186 249.133 C 185.107 249.133,184.916 249.296,184.762 249.494 M162.012 253.786 C 162.083 253.901,162.469 253.959,162.870 253.915 C 163.270 253.871,163.667 253.948,163.752 254.085 C 163.964 254.428,164.451 254.401,164.451 254.046 C 164.451 253.887,164.353 253.773,164.234 253.791 C 164.115 253.810,163.952 253.793,163.873 253.753 C 163.511 253.571,161.896 253.599,162.012 253.786 M164.818 254.472 C 164.527 254.803,164.567 254.869,165.035 254.833 C 165.349 254.810,165.607 254.623,165.607 254.418 C 165.607 253.938,165.268 253.961,164.818 254.472 M169.006 255.118 C 169.366 255.187,169.886 255.184,170.162 255.112 C 170.439 255.040,170.145 254.983,169.509 254.986 C 168.873 254.989,168.647 255.049,169.006 255.118 M151.588 260.299 C 151.970 260.682,152.126 260.701,152.403 260.401 C 152.669 260.114,152.665 260.077,152.384 260.235 C 152.186 260.347,152.023 260.301,152.023 260.133 C 152.023 259.964,151.819 259.827,151.569 259.827 C 151.164 259.827,151.166 259.877,151.588 260.299 M152.195 261.316 C 152.291 261.472,152.433 261.536,152.510 261.459 C 152.588 261.381,153.026 261.730,153.485 262.234 C 154.015 262.817,154.320 262.993,154.322 262.717 C 154.328 262.071,153.864 261.461,153.525 261.670 C 153.362 261.771,153.178 261.701,153.116 261.515 C 153.054 261.330,152.782 261.145,152.512 261.106 C 152.242 261.066,152.099 261.161,152.195 261.316 M154.821 263.181 C 154.905 263.401,155.077 263.517,155.202 263.439 C 155.328 263.362,155.503 263.486,155.591 263.715 C 155.679 263.944,156.144 264.335,156.625 264.584 C 157.378 264.973,157.476 264.976,157.335 264.608 C 157.244 264.373,157.085 264.191,156.981 264.205 C 156.384 264.284,156.061 264.120,156.241 263.828 C 156.369 263.621,156.321 263.573,156.114 263.701 C 155.921 263.820,155.780 263.732,155.780 263.490 C 155.780 263.261,155.530 263.008,155.224 262.928 C 154.835 262.826,154.713 262.902,154.821 263.181 M170.303 267.556 C 171.535 267.610,173.551 267.610,174.783 267.556 C 176.015 267.502,175.007 267.457,172.543 267.457 C 170.079 267.457,169.072 267.502,170.303 267.556 M227.244 267.548 C 227.683 267.615,228.333 267.613,228.689 267.544 C 229.044 267.476,228.685 267.422,227.890 267.424 C 227.095 267.426,226.805 267.482,227.244 267.548 " stroke="none" fill="#f34894" fill-rule="evenodd"></path><path id="path1" d="M196.549 22.159 C 194.835 23.072,194.294 23.597,193.876 24.752 C 193.683 25.286,193.447 25.723,193.350 25.723 C 193.254 25.723,193.202 26.113,193.235 26.590 C 193.268 27.066,193.210 27.457,193.107 27.456 C 193.004 27.456,192.955 31.228,193.000 35.838 L 193.081 44.220 176.815 44.253 C 167.869 44.271,160.322 44.263,160.043 44.235 C 159.765 44.206,159.538 44.335,159.538 44.521 C 159.538 44.707,159.342 44.785,159.104 44.693 C 158.866 44.602,158.671 44.653,158.671 44.807 C 158.671 44.961,158.410 45.087,158.092 45.087 C 157.775 45.087,157.514 44.978,157.514 44.846 C 157.514 44.713,157.321 44.605,157.086 44.605 C 156.756 44.605,156.732 44.696,156.984 45.000 C 157.252 45.323,157.186 45.350,156.618 45.151 C 156.237 45.017,155.795 44.921,155.636 44.939 C 155.024 45.006,154.009 45.435,154.144 45.570 C 154.222 45.648,154.590 45.556,154.961 45.365 C 155.611 45.032,155.617 45.039,155.125 45.553 C 154.690 46.008,154.527 46.032,154.019 45.715 C 153.498 45.389,153.404 45.415,153.273 45.917 C 153.126 46.478,152.312 47.032,152.312 46.571 C 152.312 46.443,152.123 46.339,151.891 46.339 C 151.660 46.339,151.528 46.433,151.599 46.547 C 151.670 46.662,151.542 46.909,151.315 47.098 C 150.892 47.449,150.849 48.997,151.245 49.627 C 151.366 49.819,151.299 50.242,151.096 50.566 C 150.805 51.033,150.802 51.274,151.081 51.721 C 151.303 52.076,151.328 52.350,151.150 52.460 C 150.757 52.703,150.793 54.335,151.191 54.335 C 151.415 54.335,151.425 54.447,151.222 54.697 C 150.831 55.176,150.769 62.333,151.153 62.570 C 151.314 62.670,151.445 63.029,151.445 63.370 C 151.445 63.847,151.523 63.910,151.788 63.646 C 152.240 63.193,152.391 62.139,152.004 62.139 C 151.837 62.139,151.777 62.014,151.871 61.862 C 151.965 61.710,152.219 61.654,152.437 61.738 C 152.654 61.821,152.930 61.730,153.050 61.536 C 153.190 61.310,153.148 61.257,152.935 61.389 C 152.751 61.502,152.601 61.457,152.601 61.289 C 152.601 61.120,152.796 60.983,153.035 60.983 C 153.273 60.983,153.468 60.885,153.469 60.766 C 153.469 60.647,153.791 60.175,154.185 59.717 C 154.579 59.259,154.832 58.773,154.748 58.636 C 154.663 58.500,154.779 58.459,155.006 58.546 C 155.232 58.633,155.601 58.534,155.827 58.326 C 156.425 57.774,157.605 57.133,157.394 57.476 C 157.293 57.639,157.462 57.750,157.777 57.726 C 158.088 57.703,158.283 57.589,158.212 57.474 C 158.141 57.359,158.215 57.184,158.377 57.084 C 158.538 56.984,158.671 57.031,158.671 57.188 C 158.671 57.367,158.989 57.383,159.522 57.230 C 160.103 57.063,160.417 57.093,160.510 57.322 C 160.600 57.541,160.656 57.520,160.671 57.262 C 160.690 56.926,160.768 56.926,161.183 57.262 C 161.452 57.480,161.594 57.529,161.499 57.370 C 161.349 57.118,223.057 57.060,235.161 57.300 C 237.093 57.339,238.614 57.272,238.540 57.153 C 238.466 57.034,234.836 56.936,230.474 56.936 L 222.543 56.936 222.543 50.723 L 222.543 44.509 218.280 44.508 C 215.936 44.507,212.171 44.422,209.913 44.319 L 205.810 44.131 205.723 34.806 C 205.637 25.656,205.624 25.464,204.986 24.602 C 204.628 24.118,204.335 23.608,204.335 23.468 C 204.335 21.969,198.686 21.019,196.549 22.159 M173.934 44.725 C 171.599 44.773,167.697 44.773,165.264 44.725 C 162.830 44.677,164.740 44.637,169.509 44.637 C 174.277 44.637,176.269 44.676,173.934 44.725 M148.754 48.103 C 148.424 48.353,148.344 48.569,148.538 48.689 C 148.706 48.793,148.844 48.726,148.844 48.541 C 148.844 48.356,149.032 48.276,149.263 48.365 C 149.543 48.472,149.628 48.387,149.521 48.107 C 149.432 47.876,149.342 47.692,149.319 47.697 C 149.296 47.702,149.042 47.885,148.754 48.103 M144.725 51.933 C 144.196 52.072,144.056 52.466,144.451 52.710 C 144.578 52.788,144.839 52.601,145.031 52.293 C 145.223 51.986,145.347 51.749,145.306 51.768 C 145.265 51.786,145.004 51.861,144.725 51.933 M140.930 57.088 C 140.673 57.345,140.462 57.701,140.462 57.879 C 140.462 58.056,140.736 57.908,141.070 57.550 C 141.766 56.802,141.639 56.380,140.930 57.088 M138.580 104.769 C 138.580 125.592,138.614 134.069,138.656 123.605 C 138.698 113.141,138.698 96.103,138.656 85.743 C 138.614 75.384,138.580 83.945,138.580 104.769 M151.084 104.986 C 150.939 180.765,150.980 192.571,151.382 192.705 C 151.803 192.846,151.739 192.162,151.301 191.840 C 151.121 191.708,151.148 191.626,151.370 191.623 C 151.655 191.619,151.730 178.724,151.733 129.335 C 151.735 87.820,151.640 67.052,151.446 67.052 C 151.254 67.052,151.132 79.825,151.084 104.986 M261.412 103.757 C 261.412 124.025,261.446 132.316,261.488 122.182 C 261.531 112.048,261.531 95.466,261.488 85.332 C 261.446 75.199,261.412 83.490,261.412 103.757 M168.990 80.063 C 168.535 80.421,168.178 80.532,168.066 80.351 C 167.953 80.167,167.632 80.246,167.209 80.563 C 166.837 80.842,166.603 81.184,166.689 81.324 C 166.774 81.463,166.671 81.520,166.460 81.450 C 165.996 81.295,165.029 82.204,165.029 82.794 C 165.029 83.075,164.858 83.157,164.523 83.037 C 164.245 82.938,164.109 82.957,164.220 83.081 C 164.332 83.205,164.227 83.502,163.987 83.742 C 163.747 83.982,163.622 84.364,163.708 84.590 C 163.796 84.818,163.739 84.922,163.581 84.825 C 163.423 84.727,163.295 84.905,163.295 85.219 C 163.295 85.533,163.132 85.856,162.934 85.936 C 162.645 86.052,162.645 86.086,162.934 86.104 C 163.132 86.117,163.295 86.265,163.295 86.433 C 163.295 86.602,163.186 86.672,163.054 86.590 C 162.921 86.509,162.813 86.631,162.813 86.862 C 162.813 87.094,162.909 87.283,163.027 87.283 C 163.144 87.283,163.167 87.564,163.078 87.906 C 162.952 88.386,163.008 88.475,163.322 88.290 C 163.548 88.157,163.496 88.316,163.205 88.649 C 162.909 88.986,162.811 89.291,162.980 89.349 C 163.230 89.434,163.467 90.153,163.562 91.113 C 163.574 91.232,163.811 91.331,164.090 91.334 C 164.490 91.337,164.512 91.391,164.197 91.591 C 163.649 91.938,163.996 92.389,165.338 93.074 C 166.485 93.659,166.895 94.074,165.978 93.722 C 165.538 93.553,165.529 93.584,165.905 93.990 C 166.139 94.242,166.427 94.389,166.546 94.317 C 166.665 94.245,166.763 94.338,166.763 94.525 C 166.763 94.723,167.005 94.802,167.341 94.714 C 167.660 94.631,167.855 94.667,167.777 94.794 C 167.698 94.922,167.828 95.101,168.065 95.192 C 168.303 95.283,168.499 95.199,168.502 95.005 C 168.505 94.765,168.587 94.781,168.761 95.056 C 169.025 95.473,171.542 95.992,171.843 95.691 C 171.937 95.597,172.100 95.517,172.206 95.513 C 174.429 95.433,177.197 93.351,177.926 91.210 C 178.175 90.481,178.476 89.945,178.596 90.019 C 178.716 90.093,178.835 89.800,178.859 89.369 C 178.884 88.937,178.944 88.154,178.993 87.628 C 179.042 87.102,178.967 86.601,178.827 86.515 C 178.688 86.428,178.634 86.200,178.708 86.008 C 179.230 84.647,175.911 80.848,173.627 80.192 C 173.508 80.158,173.313 80.099,173.194 80.062 C 173.074 80.024,172.684 80.018,172.327 80.046 C 171.969 80.075,171.676 79.955,171.676 79.780 C 171.676 79.425,170.603 79.497,169.970 79.893 C 169.692 80.067,169.629 80.042,169.770 79.813 C 170.072 79.326,169.828 79.403,168.990 80.063 M223.249 82.241 C 222.697 82.684,222.697 82.687,223.266 82.425 C 223.584 82.279,224.025 82.223,224.245 82.302 C 224.491 82.389,224.568 82.318,224.445 82.118 C 224.174 81.680,223.916 81.707,223.249 82.241 M221.941 83.411 C 221.730 83.665,221.529 84.066,221.494 84.302 C 221.460 84.538,221.241 84.882,221.008 85.068 C 219.484 86.280,219.963 93.353,221.568 93.353 C 221.768 93.353,222.024 93.503,222.137 93.686 C 222.264 93.892,222.217 93.942,222.013 93.816 C 221.803 93.686,221.742 93.767,221.846 94.038 C 222.628 96.075,222.745 94.459,222.468 85.476 C 222.428 84.188,222.522 83.184,222.688 83.115 C 222.855 83.045,222.839 82.984,222.651 82.971 C 222.472 82.958,222.152 83.156,221.941 83.411 M232.948 83.233 C 232.948 83.573,233.771 83.831,233.947 83.546 C 234.030 83.412,233.839 83.235,233.523 83.152 C 233.207 83.070,232.948 83.106,232.948 83.233 M232.996 94.473 C 232.682 94.672,232.691 94.748,233.044 94.884 C 233.283 94.975,233.550 94.863,233.638 94.635 C 233.816 94.169,233.572 94.108,232.996 94.473 M231.431 95.689 C 231.152 95.993,231.022 96.239,231.142 96.234 C 231.444 96.221,232.370 95.496,232.370 95.272 C 232.370 94.937,231.945 95.126,231.431 95.689 M223.858 95.737 C 224.080 96.321,224.255 96.354,224.855 95.922 C 225.230 95.652,225.225 95.630,224.818 95.759 C 224.560 95.841,224.194 95.756,224.007 95.570 C 223.745 95.310,223.710 95.349,223.858 95.737 M225.777 96.262 C 225.844 96.462,226.119 96.658,226.388 96.698 C 227.050 96.795,227.005 96.620,226.267 96.225 C 225.791 95.970,225.683 95.978,225.777 96.262 M261.408 172.254 C 261.408 182.666,261.444 186.926,261.488 181.720 C 261.532 176.514,261.532 167.995,261.488 162.789 C 261.444 157.583,261.408 161.842,261.408 172.254 M138.509 173.266 C 138.475 182.962,138.544 191.046,138.660 191.230 C 138.852 191.532,138.845 172.883,138.648 160.549 C 138.605 157.847,138.542 163.569,138.509 173.266 M111.339 161.850 C 111.339 162.406,111.398 162.634,111.471 162.355 C 111.544 162.077,111.544 161.622,111.471 161.344 C 111.398 161.066,111.339 161.293,111.339 161.850 M111.364 175.434 C 111.364 176.467,111.417 176.889,111.481 176.373 C 111.545 175.856,111.545 175.011,111.481 174.494 C 111.417 173.978,111.364 174.400,111.364 175.434 M151.356 193.456 C 151.260 193.707,151.314 193.994,151.477 194.095 C 151.927 194.373,152.109 194.033,151.804 193.487 C 151.560 193.052,151.513 193.049,151.356 193.456 M151.445 196.168 C 151.445 197.099,151.304 198.003,151.131 198.175 C 150.905 198.402,150.905 198.544,151.131 198.684 C 151.525 198.928,151.546 201.060,151.156 201.301 C 150.768 201.541,150.787 203.096,151.181 203.339 C 151.408 203.479,151.408 203.621,151.181 203.848 C 150.762 204.267,150.781 205.579,151.214 206.012 C 151.477 206.274,151.478 206.358,151.220 206.358 C 150.823 206.358,150.823 208.911,151.221 209.440 C 151.370 209.638,151.349 209.852,151.170 209.962 C 150.764 210.213,150.784 211.362,151.202 211.780 C 151.431 212.009,151.444 212.231,151.243 212.488 C 150.860 212.975,150.846 217.341,151.228 217.341 C 151.407 217.341,151.399 217.482,151.205 217.716 C 150.781 218.226,150.727 252.481,151.150 252.742 C 151.529 252.976,151.534 254.246,151.156 254.480 C 150.758 254.726,150.791 256.456,151.202 256.866 C 151.439 257.104,151.447 257.309,151.230 257.574 C 150.932 257.937,150.766 258.730,150.834 259.465 C 150.852 259.664,151.127 259.827,151.445 259.827 C 151.763 259.827,152.023 259.964,152.023 260.133 C 152.023 260.301,152.141 260.366,152.285 260.277 C 152.429 260.188,152.483 260.360,152.405 260.661 C 152.326 260.961,152.423 261.306,152.621 261.428 C 152.867 261.580,152.913 261.523,152.769 261.244 C 152.644 261.003,152.713 261.024,152.941 261.297 C 153.151 261.549,153.471 261.706,153.652 261.645 C 153.833 261.584,154.119 261.931,154.287 262.415 C 154.456 262.899,154.674 263.295,154.771 263.295 C 154.868 263.295,154.875 263.177,154.785 263.033 C 154.696 262.889,154.884 262.839,155.202 262.922 C 155.520 263.005,155.780 263.249,155.780 263.463 C 155.780 263.909,156.768 264.523,157.043 264.248 C 157.143 264.148,157.225 264.214,157.225 264.396 C 157.225 264.810,159.279 265.823,159.926 265.728 C 160.191 265.689,160.343 265.762,160.265 265.888 C 160.082 266.185,161.183 266.546,162.216 266.528 C 162.656 266.520,162.949 266.621,162.868 266.753 C 162.786 266.884,163.272 267.065,163.947 267.154 C 165.718 267.389,179.190 267.520,179.190 267.302 C 179.191 267.202,180.035 267.029,181.066 266.919 C 182.098 266.808,183.016 266.598,183.107 266.451 C 183.197 266.305,183.582 266.185,183.962 266.185 C 184.342 266.185,184.769 265.978,184.910 265.726 C 185.052 265.473,185.221 265.290,185.286 265.319 C 185.514 265.420,187.146 264.610,188.031 263.956 C 188.522 263.594,189.031 263.394,189.161 263.513 C 189.292 263.631,189.311 263.575,189.204 263.388 C 189.090 263.189,189.252 262.970,189.591 262.863 C 189.911 262.761,190.173 262.557,190.173 262.408 C 190.173 262.260,190.304 262.139,190.463 262.139 C 190.779 262.139,192.717 260.199,193.253 259.347 C 193.437 259.054,193.740 258.851,193.925 258.894 C 194.111 258.938,194.180 258.841,194.080 258.678 C 193.979 258.515,194.015 258.382,194.159 258.382 C 194.303 258.382,194.654 257.865,194.939 257.233 C 195.240 256.564,195.590 256.161,195.777 256.268 C 195.954 256.369,196.012 256.354,195.906 256.236 C 195.800 256.118,196.016 255.414,196.387 254.672 C 196.757 253.931,197.400 252.153,197.815 250.723 L 198.569 248.121 198.544 234.827 C 198.530 227.514,198.512 221.272,198.505 220.954 C 198.484 220.109,197.537 216.496,196.997 215.205 C 196.741 214.592,196.532 214.042,196.532 213.982 C 196.532 213.922,198.620 213.873,201.173 213.873 C 204.814 213.873,205.766 213.951,205.588 214.234 C 205.464 214.433,205.357 214.725,205.350 214.884 C 205.326 215.486,204.527 217.496,204.221 217.724 C 203.994 217.894,204.010 218.007,204.275 218.114 C 204.565 218.231,204.572 218.356,204.306 218.677 C 203.430 219.732,203.279 249.420,204.150 249.421 C 204.286 249.422,204.316 249.747,204.217 250.145 C 204.117 250.542,204.157 250.867,204.307 250.867 C 204.456 250.867,204.670 251.285,204.783 251.797 C 204.895 252.308,205.086 252.926,205.208 253.170 C 205.455 253.664,206.107 255.267,206.152 255.491 C 206.168 255.571,206.416 255.888,206.703 256.196 C 206.991 256.504,207.225 256.871,207.225 257.012 C 207.225 257.152,207.388 257.448,207.587 257.670 C 208.399 258.575,208.686 258.960,208.550 258.960 C 208.128 258.960,211.723 262.168,212.310 262.316 C 212.693 262.412,213.006 262.614,213.006 262.765 C 213.006 262.916,213.168 262.942,213.367 262.823 C 213.655 262.650,213.656 262.695,213.369 263.049 C 212.965 263.549,214.204 264.349,214.806 263.976 C 214.992 263.862,215.035 263.919,214.912 264.117 C 214.728 264.415,215.073 264.581,215.679 264.485 C 215.798 264.466,215.896 264.646,215.896 264.884 C 215.896 265.154,216.169 265.318,216.618 265.318 C 217.016 265.318,217.343 265.480,217.345 265.679 C 217.349 265.963,217.398 265.964,217.575 265.685 C 217.743 265.421,217.921 265.471,218.271 265.879 C 218.555 266.211,219.033 266.396,219.478 266.347 C 219.883 266.303,220.146 266.378,220.062 266.515 C 219.977 266.651,220.078 266.769,220.286 266.776 C 220.494 266.783,221.212 266.894,221.881 267.024 C 222.996 267.239,223.075 267.216,222.821 266.741 C 222.445 266.039,222.461 255.318,222.839 254.612 C 223.085 254.152,223.053 254.091,222.647 254.246 C 222.280 254.387,222.221 254.332,222.407 254.023 C 222.614 253.680,222.578 253.674,222.191 253.988 C 221.834 254.277,221.679 254.284,221.513 254.016 C 221.368 253.781,221.421 253.744,221.676 253.902 C 221.929 254.058,221.985 254.023,221.845 253.797 C 221.730 253.611,221.507 253.539,221.349 253.636 C 221.191 253.734,220.788 253.574,220.452 253.280 C 220.117 252.986,219.938 252.908,220.054 253.107 C 220.170 253.306,220.128 253.468,219.959 253.468 C 219.791 253.468,219.653 253.287,219.653 253.066 C 219.653 252.844,219.450 252.585,219.201 252.490 C 218.953 252.394,218.832 252.182,218.934 252.018 C 219.035 251.854,218.946 251.756,218.735 251.799 C 218.504 251.847,218.389 251.667,218.444 251.344 C 218.495 251.050,218.412 250.886,218.260 250.979 C 218.012 251.133,217.526 250.161,217.595 249.649 C 217.611 249.536,217.397 249.527,217.121 249.631 C 216.666 249.802,216.659 249.768,217.052 249.277 C 217.438 248.795,217.437 248.754,217.046 248.900 C 216.693 249.032,216.618 248.841,216.669 247.943 C 216.703 247.326,216.621 246.821,216.485 246.821 C 216.350 246.821,216.294 246.593,216.362 246.315 C 216.640 245.164,216.610 221.098,216.329 221.094 C 216.171 221.091,216.220 220.976,216.439 220.837 C 216.671 220.690,216.743 220.432,216.611 220.219 C 216.468 219.988,216.501 219.925,216.700 220.048 C 216.897 220.170,217.049 219.890,217.106 219.297 C 217.163 218.699,217.337 218.382,217.579 218.432 C 217.790 218.476,217.883 218.383,217.786 218.226 C 217.688 218.069,217.879 217.671,218.208 217.341 C 218.538 217.012,218.746 216.643,218.671 216.522 C 218.596 216.401,218.669 216.113,218.832 215.882 C 219.066 215.553,219.093 215.587,218.957 216.040 C 218.797 216.578,218.812 216.583,219.179 216.113 C 219.395 215.835,219.714 215.607,219.887 215.607 C 220.061 215.607,220.310 215.416,220.441 215.182 C 220.571 214.948,220.965 214.713,221.315 214.659 C 222.367 214.499,222.394 214.348,222.543 207.708 L 222.688 201.301 224.277 201.131 C 225.152 201.038,213.487 200.940,198.355 200.914 C 180.275 200.883,170.782 200.966,170.665 201.156 C 170.566 201.315,169.901 201.445,169.186 201.445 C 168.470 201.445,167.945 201.348,168.019 201.228 C 168.093 201.109,166.552 201.012,164.596 201.012 C 162.640 201.012,161.100 201.109,161.173 201.228 C 161.246 201.348,161.168 201.445,161.000 201.445 C 160.831 201.445,160.694 201.300,160.694 201.122 C 160.694 200.942,160.439 200.866,160.116 200.951 C 159.798 201.034,159.538 200.976,159.538 200.823 C 159.538 200.669,159.405 200.626,159.244 200.725 C 159.082 200.825,159.037 201.048,159.144 201.221 C 159.261 201.409,159.203 201.451,158.999 201.325 C 158.813 201.210,158.736 200.995,158.827 200.847 C 158.981 200.598,158.003 200.450,156.901 200.557 C 156.643 200.582,156.363 200.336,156.278 200.012 C 156.142 199.493,155.446 199.243,154.546 199.390 C 154.423 199.410,154.205 199.118,154.062 198.741 C 153.919 198.364,153.531 197.985,153.201 197.899 C 152.784 197.790,152.601 197.508,152.601 196.975 C 152.601 196.469,152.488 196.279,152.267 196.415 C 152.068 196.538,152.012 196.495,152.128 196.307 C 152.234 196.135,152.195 195.916,152.040 195.820 C 151.886 195.724,151.828 195.468,151.911 195.251 C 151.994 195.034,151.924 194.770,151.754 194.665 C 151.548 194.538,151.445 195.041,151.445 196.168 M235.766 201.076 C 236.283 201.140,237.128 201.140,237.645 201.076 C 238.161 201.012,237.738 200.960,236.705 200.960 C 235.672 200.960,235.249 201.012,235.766 201.076 M145.571 207.148 C 145.497 207.270,145.618 207.538,145.840 207.743 C 146.171 208.049,146.243 208.039,146.243 207.687 C 146.243 207.196,145.771 206.818,145.571 207.148 M148.835 210.060 C 149.387 210.516,149.397 210.605,148.985 211.387 C 148.526 212.259,148.629 212.758,149.159 212.228 C 149.555 211.832,149.708 210.437,149.378 210.233 C 149.238 210.147,149.182 209.982,149.253 209.867 C 149.324 209.752,149.126 209.638,148.813 209.615 C 148.258 209.573,148.258 209.583,148.835 210.060 M171.991 213.886 C 177.466 213.924,179.872 214.191,181.275 214.916 C 182.074 215.329,184.637 217.731,184.715 218.140 C 184.804 218.604,185.034 219.254,185.354 219.942 C 186.087 221.517,185.856 247.302,185.090 249.422 C 185.004 249.660,184.959 249.855,184.990 249.855 C 185.077 249.855,183.478 251.709,182.526 252.711 C 182.055 253.207,181.600 253.574,181.514 253.526 C 181.100 253.294,180.306 253.748,180.509 254.099 C 180.630 254.308,180.636 254.397,180.523 254.297 C 180.410 254.196,179.837 254.230,179.249 254.371 C 178.660 254.513,175.659 254.625,172.579 254.621 C 168.479 254.616,166.858 254.712,166.527 254.980 C 166.157 255.280,166.116 255.276,166.305 254.963 C 166.487 254.661,166.298 254.611,165.421 254.728 C 164.808 254.810,164.469 254.810,164.668 254.727 C 165.281 254.471,165.066 254.091,164.406 254.263 C 164.028 254.362,163.853 254.312,163.961 254.137 C 164.070 253.960,163.748 253.874,163.137 253.915 C 162.585 253.951,162.066 253.873,161.984 253.740 C 161.901 253.607,162.130 253.552,162.492 253.617 C 163.122 253.730,163.127 253.717,162.602 253.322 C 162.300 253.095,161.943 252.977,161.807 253.061 C 161.672 253.145,161.561 253.062,161.561 252.876 C 161.561 252.690,161.359 252.617,161.112 252.711 C 160.864 252.807,160.740 252.760,160.834 252.608 C 160.927 252.457,160.706 252.036,160.343 251.672 C 159.979 251.309,159.676 250.947,159.668 250.867 C 159.597 250.146,159.149 249.448,158.866 249.618 C 158.679 249.730,158.721 249.577,158.960 249.277 C 159.301 248.848,159.307 248.785,158.986 248.978 C 158.673 249.167,158.616 249.083,158.739 248.614 C 158.826 248.279,158.772 247.963,158.618 247.911 C 158.443 247.853,158.341 242.983,158.347 234.892 C 158.353 225.605,158.265 221.965,158.035 221.965 C 157.852 221.965,157.911 221.748,158.172 221.459 C 158.504 221.092,158.552 220.814,158.345 220.445 C 158.133 220.066,158.174 219.893,158.505 219.766 C 158.864 219.628,158.886 219.477,158.618 218.974 C 158.318 218.410,158.332 218.390,158.774 218.755 C 159.199 219.105,159.239 219.097,159.084 218.693 C 158.973 218.404,159.187 217.970,159.655 217.536 C 160.417 216.830,160.678 216.271,160.071 216.646 C 159.863 216.775,159.816 216.725,159.946 216.514 C 160.061 216.328,160.266 216.244,160.401 216.327 C 160.536 216.411,160.837 216.289,161.069 216.057 C 161.302 215.825,161.572 215.715,161.671 215.813 C 161.769 215.912,161.850 215.768,161.850 215.494 C 161.850 215.186,161.980 215.075,162.188 215.204 C 162.424 215.350,162.462 215.246,162.315 214.860 C 162.162 214.456,162.191 214.392,162.424 214.624 C 162.735 214.931,164.750 214.503,165.896 213.886 C 166.134 213.757,166.406 213.697,166.500 213.751 C 166.594 213.805,169.065 213.866,171.991 213.886 M216.112 239.379 C 216.065 242.280,216.027 239.906,216.027 234.104 C 216.027 228.302,216.065 225.928,216.112 228.829 C 216.159 231.730,216.159 236.478,216.112 239.379 M244.061 234.393 C 244.061 240.036,244.100 242.345,244.147 239.523 C 244.194 236.702,244.194 232.085,244.147 229.263 C 244.100 226.441,244.061 228.750,244.061 234.393 M238.565 253.734 C 238.416 253.875,238.035 254.053,237.717 254.129 L 237.139 254.268 237.717 254.297 C 238.360 254.330,239.232 253.875,238.990 253.633 C 238.904 253.548,238.713 253.593,238.565 253.734 M147.692 254.497 C 147.699 255.318,148.138 255.953,148.338 255.431 C 148.422 255.213,148.310 254.787,148.089 254.485 C 147.696 253.947,147.688 253.947,147.692 254.497 M223.410 254.633 C 223.410 254.980,224.151 255.170,224.547 254.925 C 224.789 254.775,224.662 254.655,224.160 254.559 C 223.748 254.480,223.410 254.514,223.410 254.633 M228.251 254.838 C 229.245 254.895,230.871 254.895,231.864 254.838 C 232.858 254.782,232.045 254.736,230.058 254.736 C 228.071 254.736,227.258 254.782,228.251 254.838 M170.162 255.112 C 169.886 255.184,169.366 255.187,169.006 255.118 C 168.647 255.049,168.873 254.989,169.509 254.986 C 170.145 254.983,170.439 255.040,170.162 255.112 " stroke="none" fill="#f44b8c" fill-rule="evenodd"></path><path id="path2" d="M216.835 44.429 L 222.543 44.521 222.543 50.729 L 222.543 56.936 230.443 56.936 C 234.788 56.936,238.440 57.034,238.560 57.153 C 238.898 57.491,241.160 57.452,241.397 57.104 C 241.526 56.915,241.611 56.991,241.614 57.298 C 241.617 57.609,241.840 57.803,242.197 57.803 C 243.138 57.803,243.170 57.816,244.128 58.547 C 244.634 58.933,245.237 59.249,245.467 59.249 C 245.698 59.249,245.959 59.476,246.047 59.754 C 246.262 60.432,247.183 61.942,247.543 62.207 C 247.736 62.348,247.736 62.422,247.543 62.428 C 247.384 62.433,247.402 62.532,247.583 62.649 C 248.700 63.370,249.016 192.158,247.907 194.612 C 247.629 195.225,247.465 195.828,247.542 195.952 C 247.619 196.076,247.488 196.338,247.251 196.534 C 247.014 196.731,246.821 197.075,246.821 197.299 C 246.821 197.523,246.626 197.781,246.389 197.872 C 246.151 197.963,246.017 198.135,246.091 198.254 C 246.164 198.373,245.904 198.617,245.511 198.795 C 245.119 198.974,244.798 199.261,244.798 199.433 C 244.798 199.605,244.679 199.672,244.533 199.582 C 244.388 199.492,244.225 199.551,244.171 199.712 C 244.117 199.874,243.762 200.066,243.382 200.139 C 243.001 200.212,242.221 200.434,241.648 200.633 C 240.903 200.891,238.603 200.973,233.548 200.921 C 228.066 200.866,226.438 200.932,226.255 201.220 C 226.126 201.423,226.019 201.460,226.016 201.301 C 226.011 200.896,222.822 201.130,222.675 201.545 C 222.333 202.517,222.415 214.345,222.761 213.902 C 223.078 213.497,223.098 213.511,222.923 214.017 C 222.754 214.508,222.791 214.541,223.166 214.237 C 223.409 214.039,223.694 213.963,223.798 214.068 C 223.903 214.173,223.988 214.111,223.988 213.930 C 223.988 213.750,224.151 213.663,224.350 213.737 C 224.548 213.811,227.572 213.930,231.069 214.002 C 238.042 214.144,238.747 214.188,238.575 214.466 C 238.511 214.569,238.970 214.823,239.595 215.029 C 240.221 215.235,240.664 215.515,240.580 215.650 C 240.442 215.874,240.859 216.016,241.402 215.930 C 241.521 215.911,241.618 216.077,241.618 216.299 C 241.618 216.520,241.815 216.776,242.055 216.869 C 242.295 216.961,242.474 217.137,242.454 217.261 C 242.336 217.977,242.521 218.509,242.824 218.322 C 243.053 218.180,243.101 218.273,242.972 218.609 C 242.866 218.884,242.900 219.032,243.047 218.941 C 243.193 218.851,243.394 218.909,243.494 219.070 C 243.594 219.232,243.522 219.364,243.334 219.364 C 243.096 219.364,243.082 219.473,243.289 219.725 C 244.261 220.912,244.630 241.689,243.762 246.387 C 243.528 247.659,243.331 248.930,243.327 249.211 C 243.322 249.493,243.209 249.657,243.077 249.575 C 242.945 249.493,242.664 250.011,242.454 250.725 C 242.228 251.488,241.856 252.092,241.551 252.189 C 241.266 252.280,241.106 252.473,241.196 252.619 C 241.286 252.764,241.171 252.811,240.941 252.723 C 240.700 252.631,240.325 252.844,240.059 253.224 C 239.804 253.588,239.595 253.789,239.595 253.670 C 239.595 253.552,239.303 253.645,238.945 253.877 C 237.981 254.502,234.763 254.841,230.158 254.803 C 227.500 254.781,226.127 254.870,226.239 255.058 C 226.334 255.217,226.188 255.165,225.914 254.943 C 225.528 254.630,225.259 254.611,224.712 254.860 C 224.146 255.118,223.916 255.089,223.539 254.711 C 222.673 253.846,222.530 254.854,222.610 261.241 L 222.688 267.424 223.772 267.535 C 224.393 267.599,224.855 267.520,224.855 267.349 C 224.855 267.186,225.083 267.054,225.361 267.056 C 225.686 267.059,225.748 267.137,225.535 267.273 C 225.352 267.390,227.778 267.486,230.926 267.486 C 234.074 267.486,236.582 267.375,236.498 267.240 C 236.415 267.105,236.614 267.138,236.942 267.313 C 237.269 267.488,237.607 267.518,237.693 267.379 C 237.857 267.114,239.178 266.765,240.561 266.622 C 241.012 266.575,241.792 266.342,242.295 266.104 C 245.050 264.797,245.519 264.571,246.003 264.310 C 246.294 264.153,246.532 263.918,246.532 263.787 C 246.532 263.657,246.655 263.626,246.806 263.719 C 246.957 263.813,247.222 263.625,247.395 263.303 C 247.567 262.981,247.816 262.717,247.947 262.717 C 248.443 262.717,253.396 257.360,253.272 256.959 C 253.244 256.867,253.391 256.597,253.599 256.358 C 253.807 256.120,254.067 255.632,254.176 255.275 C 254.285 254.917,254.488 254.624,254.627 254.624 C 254.766 254.624,254.829 254.361,254.767 254.039 C 254.705 253.716,254.778 253.529,254.928 253.622 C 255.079 253.715,255.212 253.686,255.224 253.558 C 255.237 253.429,255.300 253.129,255.366 252.890 C 255.432 252.652,255.692 251.611,255.944 250.578 C 256.196 249.545,256.518 248.481,256.659 248.214 C 256.829 247.894,256.796 247.681,256.565 247.587 C 256.310 247.483,256.306 247.438,256.553 247.422 C 257.020 247.390,257.107 223.410,256.640 223.410 C 256.463 223.410,256.421 223.253,256.544 223.054 C 256.833 222.588,256.895 221.676,256.639 221.676 C 256.528 221.676,256.473 221.352,256.517 220.955 C 256.561 220.558,256.483 220.164,256.345 220.079 C 256.207 219.993,256.168 219.733,256.257 219.499 C 256.347 219.266,256.323 218.848,256.205 218.569 C 256.086 218.291,255.953 217.868,255.908 217.630 C 255.645 216.212,254.640 213.760,254.228 213.530 C 253.963 213.381,253.822 213.135,253.916 212.983 C 254.010 212.831,253.706 212.221,253.241 211.628 C 251.930 209.955,251.613 209.249,252.175 209.249 C 252.428 209.249,252.555 209.118,252.457 208.960 C 252.358 208.801,252.481 208.671,252.729 208.671 C 252.976 208.671,253.179 208.519,253.179 208.333 C 253.179 208.148,253.267 208.084,253.375 208.192 C 253.633 208.450,255.780 206.071,255.780 205.527 C 255.780 205.295,255.863 205.188,255.963 205.289 C 256.156 205.482,257.972 203.168,257.878 202.849 C 257.849 202.747,258.153 202.309,258.554 201.875 C 258.956 201.442,259.333 200.703,259.393 200.234 C 259.452 199.765,259.655 199.195,259.844 198.968 C 260.032 198.741,260.090 198.555,259.971 198.555 C 259.853 198.555,259.887 198.392,260.047 198.194 C 260.207 197.995,260.426 197.377,260.534 196.821 C 260.642 196.264,260.872 195.440,261.047 194.988 C 261.298 194.337,261.279 194.113,260.957 193.908 C 260.697 193.744,260.674 193.649,260.892 193.646 C 261.081 193.644,261.233 193.414,261.230 193.136 C 261.226 192.858,261.233 183.819,261.244 173.049 L 261.264 153.468 274.977 153.468 L 288.690 153.468 288.817 154.194 C 288.933 154.859,288.940 154.853,288.908 154.122 L 288.873 153.324 278.468 153.174 L 268.064 153.024 277.662 152.957 L 287.261 152.890 287.344 146.796 C 287.390 143.444,287.374 140.648,287.307 140.582 C 287.241 140.516,281.354 140.462,274.225 140.462 L 261.264 140.462 261.226 102.962 C 261.205 82.337,261.195 64.909,261.205 64.233 C 261.214 63.556,261.103 63.076,260.957 63.166 C 260.714 63.316,260.561 62.491,260.672 61.633 C 260.698 61.434,260.611 61.272,260.479 61.272 C 260.347 61.272,260.213 61.044,260.181 60.766 C 260.122 60.242,259.913 59.213,259.814 58.960 C 259.783 58.880,259.778 58.704,259.803 58.568 C 259.827 58.432,259.685 58.126,259.488 57.888 C 259.291 57.651,259.098 57.245,259.061 56.987 C 259.023 56.730,258.816 56.385,258.601 56.222 C 258.386 56.058,258.038 55.502,257.827 54.986 C 257.617 54.469,257.308 54.046,257.142 54.046 C 256.976 54.046,256.917 53.969,257.012 53.875 C 257.106 53.780,256.738 53.312,256.194 52.834 C 255.650 52.356,255.290 51.826,255.395 51.656 C 255.515 51.461,255.408 51.415,255.105 51.531 C 254.841 51.633,254.624 51.594,254.624 51.446 C 254.624 51.066,252.975 49.422,252.594 49.422 C 252.420 49.422,252.372 49.270,252.487 49.084 C 252.627 48.858,252.540 48.806,252.224 48.927 C 251.965 49.026,251.663 48.963,251.554 48.787 C 251.422 48.573,251.492 48.548,251.762 48.710 C 252.107 48.918,252.108 48.882,251.774 48.469 C 251.557 48.202,251.263 48.055,251.121 48.143 C 250.979 48.231,250.785 48.100,250.690 47.852 C 250.595 47.605,250.392 47.479,250.240 47.574 C 250.087 47.668,249.808 47.545,249.619 47.299 C 249.431 47.054,249.092 46.813,248.865 46.764 C 248.638 46.716,247.755 46.323,246.903 45.891 C 246.051 45.459,245.440 45.245,245.545 45.415 C 245.650 45.585,245.423 45.520,245.041 45.269 C 243.888 44.514,242.095 44.429,226.301 44.382 C 217.955 44.357,213.696 44.378,216.835 44.429 M225.428 81.365 C 225.195 81.645,224.843 81.735,224.456 81.612 C 223.919 81.442,223.894 81.474,224.243 81.895 C 224.703 82.449,224.286 82.539,223.715 82.009 C 223.455 81.767,223.389 81.760,223.517 81.988 C 223.627 82.185,223.460 82.407,223.121 82.514 C 222.799 82.617,222.610 82.821,222.701 82.969 C 222.792 83.116,222.761 83.237,222.633 83.236 C 222.504 83.236,222.430 84.244,222.468 85.476 C 222.686 92.547,222.670 94.735,222.399 94.601 C 222.240 94.523,222.433 94.721,222.828 95.042 C 223.223 95.363,223.603 95.569,223.672 95.500 C 223.741 95.431,224.003 95.550,224.254 95.765 C 224.879 96.298,225.723 96.573,225.723 96.243 C 225.723 96.094,225.917 96.046,226.154 96.138 C 226.392 96.229,226.512 96.423,226.422 96.569 C 226.204 96.921,226.955 96.759,227.262 96.387 C 227.417 96.200,227.552 96.225,227.647 96.460 C 227.728 96.658,227.986 96.821,228.220 96.821 C 228.485 96.821,228.564 96.683,228.430 96.460 C 228.267 96.189,228.317 96.175,228.629 96.405 C 229.184 96.813,229.933 96.741,229.837 96.290 C 229.780 96.019,229.902 96.005,230.324 96.230 C 231.033 96.610,231.299 96.614,231.069 96.243 C 230.895 95.961,231.205 95.859,232.081 95.911 C 232.372 95.928,232.396 95.884,232.153 95.777 C 231.530 95.500,231.757 95.037,232.414 95.245 C 232.897 95.399,232.998 95.344,232.865 94.999 C 232.678 94.512,233.388 94.100,233.886 94.408 C 234.055 94.512,234.111 94.465,234.011 94.303 C 233.911 94.141,234.086 93.775,234.400 93.491 C 234.714 93.207,234.971 92.790,234.971 92.565 C 234.971 92.339,235.167 91.959,235.407 91.719 C 235.647 91.479,235.766 91.158,235.671 91.005 C 235.577 90.851,235.625 90.569,235.779 90.378 C 236.119 89.955,235.956 86.913,235.537 85.838 C 235.506 85.759,235.497 85.592,235.518 85.469 C 235.538 85.345,235.358 85.169,235.118 85.077 C 234.878 84.985,234.682 84.784,234.682 84.631 C 234.682 84.104,233.926 83.526,233.237 83.526 C 233.078 83.526,232.948 83.388,232.948 83.220 C 232.948 83.052,233.078 82.994,233.237 83.092 C 233.396 83.191,233.526 83.133,233.526 82.965 C 233.526 82.659,233.139 82.545,232.426 82.641 C 232.218 82.669,232.088 82.498,232.137 82.261 C 232.186 82.024,232.127 81.824,232.006 81.817 C 231.885 81.810,231.416 81.613,230.965 81.379 C 230.324 81.048,230.061 81.031,229.769 81.301 C 229.477 81.571,229.440 81.568,229.599 81.286 C 229.711 81.087,229.665 80.925,229.497 80.925 C 229.328 80.925,229.191 81.081,229.191 81.272 C 229.191 81.541,229.114 81.541,228.844 81.272 C 228.424 80.852,226.767 80.799,227.023 81.214 C 227.121 81.373,227.064 81.503,226.896 81.503 C 226.727 81.503,226.590 81.373,226.590 81.214 C 226.590 80.772,225.839 80.870,225.428 81.365 M288.474 157.026 C 288.452 158.272,288.545 158.928,288.728 158.815 C 289.056 158.612,289.056 157.214,288.728 155.925 C 288.558 155.257,288.500 155.510,288.474 157.026 M288.627 161.922 C 288.383 163.946,288.388 171.535,288.632 171.291 C 288.779 171.144,288.985 160.405,288.841 160.405 C 288.823 160.405,288.727 161.087,288.627 161.922 M301.193 171.373 C 301.166 172.939,301.243 173.439,301.474 173.208 C 301.699 172.983,301.710 172.351,301.511 171.055 L 301.230 169.220 301.193 171.373 M98.333 172.543 C 98.333 173.100,98.392 173.327,98.465 173.049 C 98.538 172.771,98.538 172.316,98.465 172.038 C 98.392 171.759,98.333 171.987,98.333 172.543 M288.728 174.116 C 288.728 174.663,288.828 175.172,288.950 175.248 C 289.073 175.323,289.124 174.876,289.065 174.253 C 288.931 172.856,288.728 172.773,288.728 174.116 M287.401 175.251 C 286.909 175.431,286.485 175.708,286.458 175.867 C 286.432 176.026,286.229 176.158,286.009 176.160 C 285.788 176.162,285.324 176.487,284.976 176.883 C 284.541 177.378,284.394 177.444,284.504 177.095 C 284.693 176.498,284.440 176.463,283.747 176.989 C 283.472 177.198,283.342 177.465,283.458 177.582 C 283.575 177.698,283.540 177.755,283.382 177.708 C 282.929 177.575,281.756 178.321,281.943 178.624 C 282.036 178.773,281.910 178.818,281.664 178.724 C 281.370 178.611,281.124 178.785,280.945 179.233 C 280.795 179.607,280.664 179.800,280.654 179.661 C 280.644 179.522,280.442 179.570,280.205 179.766 C 279.969 179.963,279.859 180.259,279.961 180.424 C 280.073 180.605,280.006 180.638,279.794 180.507 C 279.569 180.368,279.383 180.509,279.282 180.896 C 279.195 181.230,278.911 181.512,278.651 181.523 C 278.286 181.539,278.310 181.600,278.757 181.792 C 279.296 182.023,278.947 182.232,278.230 182.108 C 278.099 182.085,278.061 182.179,278.146 182.316 C 278.375 182.687,277.465 183.854,277.116 183.638 C 276.656 183.354,276.283 184.168,276.663 184.626 C 276.923 184.940,276.883 185.002,276.470 184.925 C 275.916 184.821,274.855 186.402,274.855 187.334 C 274.855 187.605,274.731 187.904,274.579 187.998 C 274.427 188.092,274.383 188.379,274.482 188.635 C 274.581 188.894,274.471 189.243,274.234 189.420 C 273.664 189.848,273.369 190.689,273.746 190.815 C 273.940 190.880,273.880 191.319,273.578 192.041 C 273.236 192.860,273.198 193.221,273.438 193.370 C 273.665 193.510,273.609 193.663,273.263 193.857 C 272.906 194.057,272.858 194.201,273.098 194.350 C 273.357 194.510,273.353 194.663,273.082 194.990 C 272.796 195.335,272.807 195.472,273.140 195.682 C 273.428 195.865,273.444 195.946,273.194 195.949 C 272.995 195.952,272.832 196.203,272.832 196.508 C 272.832 196.812,272.995 197.127,273.194 197.207 C 273.483 197.324,273.483 197.358,273.194 197.376 C 272.995 197.389,272.832 197.602,272.832 197.849 C 272.832 198.098,272.972 198.214,273.144 198.108 C 273.351 197.980,273.407 198.217,273.313 198.815 C 273.233 199.320,273.287 199.643,273.435 199.551 C 273.833 199.305,273.753 200.120,273.338 200.537 C 273.048 200.829,273.077 200.863,273.483 200.709 C 273.776 200.597,273.988 200.651,273.988 200.836 C 273.988 201.012,273.838 201.156,273.655 201.156 C 273.462 201.156,273.535 201.393,273.828 201.717 C 274.112 202.030,274.335 202.730,274.335 203.306 C 274.335 204.068,274.459 204.336,274.812 204.340 C 275.169 204.343,275.196 204.403,274.918 204.580 C 274.714 204.709,274.630 205.031,274.731 205.296 C 274.833 205.561,275.024 205.711,275.155 205.629 C 275.286 205.548,275.475 205.614,275.575 205.776 C 275.675 205.937,275.603 206.069,275.415 206.069 C 275.162 206.069,275.157 206.170,275.396 206.457 C 275.573 206.671,275.621 206.951,275.503 207.081 C 275.385 207.211,275.523 207.233,275.810 207.130 C 276.159 207.005,276.263 207.052,276.127 207.273 C 276.015 207.454,276.163 207.777,276.456 207.992 C 276.749 208.206,276.894 208.382,276.778 208.382 C 276.662 208.382,276.828 208.661,277.146 209.003 C 277.465 209.345,277.663 209.726,277.586 209.850 C 277.510 209.974,277.599 210.170,277.786 210.285 C 277.989 210.411,278.047 210.369,277.930 210.180 C 277.823 210.008,277.868 209.785,278.030 209.685 C 278.192 209.585,278.340 209.641,278.360 209.810 C 278.380 209.978,278.412 210.250,278.432 210.415 C 278.452 210.580,278.642 210.822,278.854 210.953 C 279.066 211.084,279.229 211.275,279.215 211.376 C 279.144 211.914,279.219 212.139,279.471 212.139 C 279.625 212.139,279.664 211.911,279.559 211.633 C 279.377 211.152,279.393 211.152,279.876 211.631 C 280.155 211.908,280.290 212.285,280.176 212.470 C 280.062 212.655,280.086 212.738,280.230 212.654 C 280.374 212.570,280.751 212.765,281.069 213.087 C 281.387 213.409,281.465 213.568,281.241 213.439 C 280.958 213.276,280.902 213.314,281.057 213.564 C 281.179 213.762,281.525 213.859,281.825 213.780 C 282.125 213.702,282.307 213.741,282.229 213.867 C 282.151 213.993,282.306 214.274,282.573 214.490 C 282.990 214.829,283.028 214.823,282.838 214.451 C 282.709 214.200,282.791 214.231,283.031 214.523 C 283.259 214.801,283.634 215.029,283.864 215.029 C 284.094 215.029,284.535 215.234,284.844 215.484 C 285.152 215.734,285.210 215.855,284.971 215.751 C 284.733 215.648,284.796 215.773,285.112 216.029 C 285.478 216.325,285.725 216.380,285.792 216.180 C 285.852 216.000,286.066 216.088,286.292 216.386 C 286.515 216.681,286.691 216.755,286.696 216.555 C 286.701 216.362,286.868 216.266,287.066 216.342 C 287.375 216.460,287.477 209.713,287.288 201.662 C 287.286 201.543,287.146 201.445,286.977 201.445 C 286.809 201.445,286.764 201.595,286.877 201.779 C 286.995 201.970,286.958 202.035,286.789 201.930 C 286.627 201.830,286.516 201.453,286.543 201.091 C 286.569 200.729,286.420 199.924,286.210 199.300 C 285.706 197.800,285.478 196.454,285.758 196.627 C 285.882 196.703,286.008 196.059,286.040 195.196 C 286.072 194.317,285.982 193.697,285.835 193.788 C 285.691 193.877,285.756 193.597,285.980 193.166 C 286.204 192.735,286.321 192.276,286.240 192.145 C 286.159 192.014,286.238 191.908,286.416 191.908 C 286.594 191.908,286.659 191.777,286.561 191.618 C 286.462 191.460,286.516 191.329,286.679 191.329 C 286.842 191.329,286.901 191.134,286.810 190.896 C 286.713 190.645,286.808 190.456,287.036 190.446 C 287.251 190.438,287.745 190.015,288.132 189.507 L 288.836 188.584 287.987 189.364 L 287.139 190.144 287.283 182.945 C 287.419 176.175,287.462 175.720,288.006 175.310 C 288.669 174.810,288.622 174.805,287.401 175.251 M290.462 187.586 C 290.462 187.772,290.261 187.846,290.014 187.751 C 289.723 187.639,289.637 187.695,289.770 187.910 C 289.911 188.138,289.768 188.187,289.310 188.067 C 288.815 187.938,288.729 187.977,288.972 188.221 C 289.215 188.464,289.536 188.436,290.223 188.110 C 290.821 187.827,291.026 187.598,290.805 187.461 C 290.616 187.344,290.462 187.400,290.462 187.586 M287.697 203.107 C 287.738 203.385,288.019 203.638,288.322 203.668 C 288.754 203.712,288.767 203.693,288.383 203.578 C 288.101 203.494,287.961 203.256,288.053 203.017 C 288.140 202.788,288.080 202.601,287.918 202.601 C 287.756 202.601,287.657 202.829,287.697 203.107 M293.799 205.513 C 293.919 205.707,295.376 205.518,295.376 205.309 C 295.376 205.245,294.995 205.222,294.529 205.258 C 294.063 205.293,293.735 205.408,293.799 205.513 M290.462 217.347 C 290.462 217.521,290.332 217.584,290.173 217.486 C 290.014 217.387,289.884 217.459,289.884 217.644 C 289.884 217.829,290.071 217.909,290.299 217.822 C 290.527 217.734,290.764 217.811,290.824 217.993 C 290.889 218.186,291.004 218.209,291.102 218.049 C 291.194 217.898,291.087 217.607,290.866 217.402 C 290.606 217.162,290.462 217.142,290.462 217.347 M216.027 234.104 C 216.027 239.906,216.065 242.280,216.112 239.379 C 216.159 236.478,216.159 231.730,216.112 228.829 C 216.065 225.928,216.027 228.302,216.027 234.104 M198.685 234.249 C 198.685 239.971,198.724 242.353,198.771 239.542 C 198.818 236.731,198.819 232.049,198.771 229.137 C 198.724 226.226,198.685 228.526,198.685 234.249 M219.653 253.251 C 219.653 253.397,219.816 253.459,220.014 253.389 C 220.213 253.319,220.766 253.514,221.243 253.822 L 222.110 254.383 221.298 253.685 C 220.480 252.980,219.653 252.763,219.653 253.251 M212.010 262.453 C 212.342 262.990,213.252 263.308,213.466 262.962 C 213.595 262.754,213.546 262.706,213.339 262.834 C 213.156 262.947,213.006 262.917,213.006 262.768 C 213.006 262.618,212.745 262.427,212.427 262.344 C 212.109 262.261,211.921 262.310,212.010 262.453 " stroke="none" fill="#f4548c" fill-rule="evenodd"></path><path id="path3" d="M288.506 172.254 C 288.506 172.811,288.566 173.038,288.639 172.760 C 288.711 172.482,288.711 172.027,288.639 171.749 C 288.566 171.470,288.506 171.698,288.506 172.254 M301.512 173.988 C 301.512 174.545,301.572 174.772,301.644 174.494 C 301.717 174.216,301.717 173.761,301.644 173.483 C 301.572 173.204,301.512 173.432,301.512 173.988 M98.361 175.289 C 98.362 176.402,98.414 176.822,98.477 176.222 C 98.539 175.622,98.538 174.712,98.474 174.199 C 98.411 173.686,98.359 174.176,98.361 175.289 M313.101 183.358 C 313.208 183.635,313.295 183.982,313.295 184.128 C 313.295 184.274,313.522 184.383,313.801 184.370 C 314.103 184.357,314.161 184.289,313.945 184.202 C 313.746 184.121,313.584 183.879,313.584 183.663 C 313.584 183.448,313.432 183.177,313.246 183.062 C 313.015 182.920,312.969 183.014,313.101 183.358 " stroke="none" fill="#f45c84" fill-rule="evenodd"></path><path id="path4" d="M192.902 35.983 C 192.902 40.592,192.942 42.438,192.991 40.083 C 193.039 37.729,193.039 33.957,192.991 31.702 C 192.942 29.447,192.902 31.373,192.902 35.983 M248.408 129.191 C 248.408 163.288,248.441 177.236,248.483 160.188 C 248.524 143.139,248.524 115.242,248.483 98.194 C 248.441 81.145,248.408 95.094,248.408 129.191 M287.312 140.663 C 287.334 140.791,287.336 143.595,287.317 146.893 L 287.283 152.890 277.673 152.957 L 268.064 153.024 278.468 153.174 L 288.873 153.324 288.924 154.191 L 288.975 155.058 288.741 154.191 C 288.371 152.817,288.398 154.191,288.783 156.277 C 289.057 157.763,289.051 158.261,288.757 158.733 C 288.482 159.172,288.436 160.153,288.576 162.538 C 289.109 171.618,288.811 175.344,287.562 175.216 C 287.170 175.176,286.980 175.241,287.139 175.360 C 287.325 175.500,287.376 178.161,287.283 182.828 C 287.173 188.336,287.222 190.078,287.484 190.077 C 287.674 190.077,287.804 189.936,287.773 189.764 C 287.742 189.592,287.889 189.487,288.100 189.530 C 288.310 189.574,288.399 189.475,288.298 189.311 C 288.197 189.147,288.324 188.932,288.582 188.833 C 288.840 188.735,288.988 188.490,288.911 188.290 C 288.816 188.043,288.965 187.977,289.373 188.084 C 289.779 188.190,289.908 188.134,289.770 187.910 C 289.637 187.695,289.723 187.639,290.014 187.751 C 290.269 187.849,290.462 187.770,290.462 187.568 C 290.462 187.289,290.555 187.290,290.896 187.572 C 291.219 187.840,291.329 187.845,291.329 187.591 C 291.329 187.403,291.451 187.324,291.599 187.415 C 291.747 187.507,291.955 187.441,292.061 187.268 C 292.168 187.096,292.444 187.027,292.674 187.116 C 292.905 187.204,293.020 187.157,292.929 187.011 C 292.839 186.865,292.897 186.663,293.059 186.564 C 293.220 186.464,293.353 186.505,293.353 186.654 C 293.353 187.064,294.461 187.272,294.617 186.891 C 294.710 186.664,294.759 186.673,294.775 186.922 C 294.787 187.121,294.935 187.283,295.104 187.283 C 295.272 187.283,295.329 187.153,295.231 186.994 C 295.133 186.835,295.190 186.705,295.359 186.705 C 295.527 186.705,295.665 186.838,295.665 187.001 C 295.665 187.164,295.989 187.084,296.384 186.825 C 297.044 186.393,297.119 186.392,297.282 186.818 C 297.461 187.285,298.690 187.472,298.917 187.066 C 298.984 186.947,299.006 186.994,298.966 187.171 C 298.926 187.347,299.532 187.780,300.314 188.133 C 301.095 188.487,301.734 188.903,301.734 189.058 C 301.734 189.213,301.850 189.269,301.992 189.181 C 302.134 189.093,302.332 189.346,302.431 189.742 C 302.531 190.138,302.812 190.462,303.057 190.462 C 303.310 190.462,303.417 190.601,303.304 190.784 C 303.195 190.960,303.239 191.188,303.402 191.290 C 303.566 191.391,303.781 191.988,303.880 192.616 C 303.980 193.244,304.286 194.014,304.560 194.327 C 304.834 194.641,304.895 194.802,304.697 194.686 C 304.498 194.570,304.327 194.580,304.317 194.708 C 304.307 194.837,304.254 195.853,304.199 196.965 C 304.082 199.300,303.971 199.998,303.627 200.556 C 303.446 200.848,303.488 200.897,303.785 200.735 C 304.008 200.614,303.832 200.822,303.393 201.197 C 302.952 201.574,302.570 202.219,302.538 202.641 C 302.502 203.117,302.345 203.352,302.119 203.265 C 301.908 203.184,301.677 203.449,301.563 203.903 C 301.440 204.396,301.291 204.554,301.156 204.335 C 300.997 204.077,300.719 204.108,300.041 204.458 C 299.545 204.715,299.105 204.912,299.064 204.896 C 298.838 204.807,297.399 205.295,297.399 205.461 C 297.399 205.568,297.148 205.656,296.842 205.656 C 296.536 205.656,296.349 205.554,296.426 205.428 C 296.562 205.209,294.572 205.421,294.167 205.669 C 294.059 205.735,293.899 205.675,293.813 205.534 C 293.660 205.287,291.125 204.802,290.108 204.825 C 289.833 204.832,289.687 204.710,289.783 204.554 C 290.009 204.189,289.341 203.767,288.529 203.762 C 288.180 203.759,287.816 203.629,287.719 203.472 C 287.616 203.305,287.759 203.254,288.063 203.349 C 288.558 203.504,288.558 203.495,288.072 203.183 C 287.790 203.003,287.636 202.733,287.728 202.583 C 287.820 202.434,287.753 202.312,287.579 202.312 C 287.357 202.312,287.288 204.414,287.346 209.397 C 287.410 214.972,287.351 216.451,287.066 216.342 C 286.868 216.266,286.705 216.390,286.705 216.618 C 286.705 216.847,286.879 216.967,287.092 216.885 C 287.305 216.804,287.646 216.938,287.850 217.183 C 288.054 217.429,288.368 217.628,288.547 217.626 C 288.743 217.623,288.720 217.524,288.487 217.377 C 288.173 217.178,288.181 217.102,288.531 216.968 C 288.800 216.865,289.015 217.012,289.106 217.361 C 289.267 217.977,289.879 218.130,289.894 217.558 C 289.899 217.356,290.103 217.451,290.357 217.775 C 290.800 218.339,290.806 218.336,290.604 217.660 C 290.422 217.054,290.451 217.018,290.833 217.371 C 291.073 217.593,291.196 217.894,291.107 218.040 C 291.018 218.187,291.163 218.223,291.429 218.121 C 291.695 218.019,292.232 218.057,292.622 218.205 C 293.070 218.375,293.396 218.372,293.504 218.196 C 293.611 218.025,293.866 218.019,294.169 218.181 C 294.671 218.450,296.242 218.470,296.243 218.208 C 296.243 218.129,296.731 218.045,297.327 218.023 C 297.923 218.000,298.866 217.893,299.422 217.785 C 299.978 217.676,300.694 217.536,301.012 217.473 C 301.329 217.411,301.811 217.316,302.082 217.263 C 302.352 217.210,302.840 216.926,303.165 216.631 C 303.518 216.312,303.757 216.235,303.757 216.441 C 303.757 216.695,303.863 216.688,304.160 216.413 C 304.382 216.208,304.487 215.910,304.394 215.751 C 304.301 215.592,304.432 215.630,304.685 215.836 C 305.203 216.255,306.842 215.068,306.426 214.576 C 306.309 214.438,306.440 214.498,306.716 214.710 C 307.142 215.036,307.246 215.023,307.397 214.628 C 307.496 214.372,307.754 214.162,307.970 214.162 C 308.187 214.162,308.649 213.777,308.997 213.306 C 309.345 212.836,309.721 212.507,309.833 212.576 C 309.945 212.645,310.447 212.250,310.950 211.698 C 311.453 211.145,311.775 210.694,311.667 210.694 C 311.559 210.694,311.849 210.369,312.311 209.972 C 312.772 209.575,313.157 209.153,313.164 209.033 C 313.211 208.322,313.684 207.514,314.054 207.514 C 314.291 207.514,314.405 207.384,314.306 207.225 C 314.208 207.066,314.265 206.936,314.434 206.936 C 314.602 206.936,314.740 206.676,314.740 206.358 C 314.740 206.018,314.933 205.780,315.209 205.780 C 315.577 205.780,315.606 205.694,315.343 205.377 C 315.084 205.065,315.121 204.862,315.509 204.475 C 315.784 204.200,316.053 203.698,316.108 203.360 C 316.163 203.022,316.251 202.486,316.303 202.168 C 316.355 201.850,316.545 201.223,316.725 200.776 C 316.954 200.206,316.962 199.795,316.753 199.403 C 316.547 199.018,316.547 198.844,316.753 198.844 C 317.130 198.844,317.116 194.104,316.732 191.908 C 316.579 191.033,316.430 190.090,316.402 189.812 C 316.373 189.534,316.248 189.306,316.123 189.306 C 315.998 189.306,315.896 188.909,315.896 188.422 C 315.896 187.828,315.787 187.606,315.562 187.744 C 315.355 187.873,315.307 187.824,315.436 187.615 C 315.550 187.430,315.440 187.075,315.192 186.827 C 314.943 186.578,314.740 186.195,314.740 185.975 C 314.740 185.755,314.447 185.269,314.090 184.895 C 313.388 184.161,312.905 183.469,312.379 182.442 C 312.196 182.085,311.872 181.792,311.659 181.792 C 311.446 181.792,311.272 181.654,311.272 181.486 C 311.272 181.317,311.422 181.273,311.605 181.386 C 311.819 181.518,311.860 181.465,311.721 181.239 C 311.601 181.045,311.437 180.952,311.356 181.033 C 311.144 181.245,310.440 180.533,310.601 180.267 C 310.676 180.144,310.613 180.079,310.461 180.123 C 310.309 180.167,309.848 179.842,309.435 179.401 C 309.023 178.960,308.633 178.635,308.570 178.678 C 308.507 178.722,308.028 178.404,307.507 177.972 C 306.986 177.541,306.450 177.256,306.315 177.339 C 306.180 177.423,306.069 177.353,306.069 177.185 C 306.069 177.016,305.874 176.879,305.636 176.879 C 305.397 176.879,305.202 176.749,305.202 176.590 C 305.202 176.431,304.877 176.301,304.480 176.301 C 304.082 176.301,303.757 176.163,303.757 175.995 C 303.757 175.826,303.907 175.781,304.091 175.895 C 304.304 176.027,304.346 175.973,304.206 175.747 C 304.086 175.553,303.810 175.462,303.593 175.546 C 303.375 175.629,303.128 175.585,303.044 175.448 C 302.959 175.311,302.644 175.263,302.344 175.341 C 301.362 175.598,301.314 174.854,301.405 161.043 C 301.479 149.953,301.423 147.285,301.109 146.898 C 300.834 146.559,300.827 146.484,301.084 146.638 C 301.341 146.793,301.445 146.601,301.445 145.971 C 301.445 145.485,301.309 145.087,301.143 145.087 C 300.977 145.087,300.879 144.924,300.925 144.725 C 300.970 144.527,300.878 144.339,300.721 144.309 C 300.563 144.279,300.359 143.953,300.269 143.586 C 300.179 143.219,299.910 142.933,299.672 142.950 C 299.411 142.969,299.248 142.741,299.259 142.372 C 299.270 142.015,299.120 141.795,298.897 141.842 C 298.688 141.885,298.180 141.655,297.768 141.331 C 297.299 140.962,296.806 140.809,296.450 140.922 C 296.115 141.028,295.953 140.987,296.055 140.821 C 296.164 140.645,294.563 140.520,291.750 140.485 C 289.287 140.454,287.290 140.534,287.312 140.663 M288.933 161.919 C 288.864 162.278,288.804 162.052,288.801 161.416 C 288.798 160.780,288.855 160.486,288.927 160.763 C 288.999 161.039,289.002 161.559,288.933 161.919 M289.065 174.253 C 289.124 174.876,289.073 175.323,288.950 175.248 C 288.728 175.110,288.627 173.121,288.842 173.121 C 288.905 173.121,289.005 173.631,289.065 174.253 M284.682 176.734 C 284.478 176.980,284.376 177.247,284.455 177.326 C 284.535 177.406,284.767 177.269,284.971 177.023 C 285.175 176.777,285.277 176.511,285.198 176.431 C 285.118 176.352,284.886 176.488,284.682 176.734 M278.324 182.098 C 278.324 182.266,278.226 182.345,278.107 182.273 C 277.804 182.089,277.328 182.692,277.232 183.382 C 277.160 183.897,277.217 183.881,277.756 183.237 C 278.089 182.840,278.573 182.352,278.831 182.153 C 279.263 181.821,279.261 181.792,278.812 181.792 C 278.544 181.792,278.324 181.930,278.324 182.098 M273.410 191.618 C 273.209 192.106,273.111 192.572,273.194 192.654 C 273.276 192.737,273.489 192.386,273.667 191.875 C 274.088 190.669,273.887 190.468,273.410 191.618 M273.268 200.019 C 273.351 200.998,273.591 201.369,273.916 201.020 C 274.035 200.892,273.984 200.734,273.802 200.669 C 273.621 200.604,273.534 200.311,273.611 200.019 C 273.687 199.726,273.624 199.410,273.471 199.315 C 273.311 199.216,273.225 199.514,273.268 200.019 M286.504 201.131 C 286.628 201.940,286.864 202.117,286.915 201.438 C 286.938 201.130,286.835 200.803,286.686 200.711 C 286.537 200.618,286.455 200.808,286.504 201.131 M273.534 202.018 C 273.534 202.315,273.650 202.487,273.792 202.399 C 273.934 202.312,273.970 202.494,273.871 202.806 C 273.753 203.176,273.825 203.372,274.079 203.372 C 274.541 203.372,274.390 202.187,273.874 201.759 C 273.634 201.560,273.534 201.636,273.534 202.018 M277.786 210.019 C 277.962 210.231,278.216 210.405,278.350 210.405 C 278.485 210.405,278.528 210.231,278.447 210.019 C 278.365 209.807,278.111 209.634,277.882 209.634 C 277.568 209.634,277.544 209.728,277.786 210.019 M279.480 211.496 C 279.480 211.797,280.258 212.717,280.512 212.717 C 280.742 212.717,280.638 212.519,280.058 211.850 C 279.740 211.483,279.480 211.324,279.480 211.496 M283.526 215.335 C 283.526 215.503,283.656 215.561,283.815 215.462 C 283.974 215.364,284.104 215.413,284.104 215.572 C 284.104 215.730,284.372 215.840,284.700 215.815 C 285.257 215.773,285.263 215.746,284.789 215.400 C 284.175 214.950,283.526 214.917,283.526 215.335 M145.217 234.104 C 145.217 239.906,145.256 242.280,145.303 239.379 C 145.350 236.478,145.350 231.730,145.303 228.829 C 145.256 225.928,145.217 228.302,145.217 234.104 M230.428 267.554 C 231.188 267.614,232.358 267.613,233.029 267.552 C 233.700 267.492,233.078 267.443,231.647 267.444 C 230.217 267.445,229.668 267.494,230.428 267.554 " stroke="none" fill="#f35484" fill-rule="evenodd"></path></g></svg>